<svg width="53" height="52" viewBox="0 0 53 52" fill="none" xmlns="http://www.w3.org/2000/svg">
<g id="vuesax/bold/building-3">
<g id="building-3">
<path id="Vector" d="M32.5615 15.3185C32.5615 13.8668 31.8465 12.5235 30.6332 11.7218L21.9665 5.93682C20.5149 4.96182 18.6082 4.96182 17.1565 5.93682L8.48986 11.7218C7.29819 12.5235 6.56152 13.8668 6.56152 15.3185V27.6251C6.56152 28.2318 7.03819 28.7085 7.64486 28.7085H31.4782C32.0849 28.7085 32.5615 28.2318 32.5615 27.6251V15.3185ZM19.5615 23.2918C17.4815 23.2918 15.7699 21.5801 15.7699 19.5001C15.7699 17.4201 17.4815 15.7085 19.5615 15.7085C21.6415 15.7085 23.3532 17.4201 23.3532 19.5001C23.3532 21.5801 21.6415 23.2918 19.5615 23.2918Z" fill="#B3B3B3"/>
<path id="Vector_2" d="M47.7279 46.0418H44.9762V39.5418C47.0345 38.8701 48.5295 36.9418 48.5295 34.6668V30.3334C48.5295 27.4951 46.2112 25.1768 43.3729 25.1768C40.5345 25.1768 38.2162 27.4951 38.2162 30.3334V34.6668C38.2162 36.9201 39.6895 38.8268 41.7045 39.5201V46.0418H32.5612V33.0418C32.5612 32.4351 32.0845 31.9584 31.4779 31.9584H7.64453C7.03786 31.9584 6.5612 32.4351 6.5612 33.0418V46.0418H4.39453C3.5062 46.0418 2.76953 46.7784 2.76953 47.6668C2.76953 48.5551 3.5062 49.2918 4.39453 49.2918H43.2429C43.2862 49.2918 43.3079 49.3134 43.3512 49.3134C43.3945 49.3134 43.4162 49.2918 43.4595 49.2918H47.7279C48.6162 49.2918 49.3529 48.5551 49.3529 47.6668C49.3529 46.7784 48.6162 46.0418 47.7279 46.0418ZM17.9362 39.5418C17.9362 38.6534 18.6729 37.9168 19.5612 37.9168C20.4495 37.9168 21.1862 38.6534 21.1862 39.5418V46.0418H17.9362V39.5418Z" fill="#B3B3B3"/>
</g>
</g>
</svg>
