<svg width="53" height="52" viewBox="0 0 53 52" fill="none" xmlns="http://www.w3.org/2000/svg">
<g id="vuesax/bulk/buildings-2">
<g id="buildings-2">
<path id="Vector" d="M23.0278 8.99188V13.0002H19.8212C16.3329 13.0002 14.5779 14.7551 14.5779 18.2435V39.0002H9.05292C5.95458 39.0002 4.39453 37.4401 4.39453 34.3418V8.99188C4.39453 5.89355 5.95458 4.3335 9.05292 4.3335H18.3696C21.4679 4.3335 23.0278 5.89355 23.0278 8.99188Z" fill="#B3B3B3"/>
<path id="Vector_2" opacity="0.4" d="M37.6964 18.2433V42.4234C37.6964 45.9117 35.9631 47.6667 32.4748 47.6667H19.8214C16.3331 47.6667 14.5781 45.9117 14.5781 42.4234V18.2433C14.5781 14.755 16.3331 13 19.8214 13H32.4748C35.9631 13 37.6964 14.755 37.6964 18.2433Z" fill="#B3B3B3"/>
<path id="Vector_3" d="M47.728 8.99188V34.3418C47.728 37.4401 46.168 39.0002 43.0696 39.0002H37.6963V18.2435C37.6963 14.7551 35.9631 13.0002 32.4747 13.0002H29.0947V8.99188C29.0947 5.89355 30.6546 4.3335 33.753 4.3335H43.0696C46.168 4.3335 47.728 5.89355 47.728 8.99188Z" fill="#B3B3B3"/>
<g id="Group">
<path id="Vector_4" d="M30.3952 25.4585H21.7285C20.8402 25.4585 20.1035 24.7218 20.1035 23.8335C20.1035 22.9452 20.8402 22.2085 21.7285 22.2085H30.3952C31.2835 22.2085 32.0202 22.9452 32.0202 23.8335C32.0202 24.7218 31.2835 25.4585 30.3952 25.4585Z" fill="#B3B3B3"/>
</g>
<g id="Group_2">
<path id="Vector_5" d="M30.3952 31.9585H21.7285C20.8402 31.9585 20.1035 31.2218 20.1035 30.3335C20.1035 29.4452 20.8402 28.7085 21.7285 28.7085H30.3952C31.2835 28.7085 32.0202 29.4452 32.0202 30.3335C32.0202 31.2218 31.2835 31.9585 30.3952 31.9585Z" fill="#B3B3B3"/>
</g>
<path id="Vector_6" d="M27.6865 41.1665V47.6665H24.4365V41.1665C24.4365 40.2782 25.1732 39.5415 26.0615 39.5415C26.9499 39.5415 27.6865 40.2782 27.6865 41.1665Z" fill="#B3B3B3"/>
</g>
</g>
</svg>
