<svg width="24" height="25" viewBox="0 0 24 25" fill="none" xmlns="http://www.w3.org/2000/svg">
<path d="M21.6702 7.62813C21.0302 5.45813 19.2202 3.64813 17.0502 3.00813C15.4002 2.52813 14.2602 2.56813 13.4702 3.15813C12.5202 3.86813 12.4102 5.14813 12.4102 6.05813V8.54813C12.4102 11.0081 13.5302 12.2581 15.7302 12.2581H18.6002C19.5002 12.2581 20.7902 12.1481 21.5002 11.1981C22.1102 10.4181 22.1602 9.27813 21.6702 7.62813Z" fill="#B3B3B3"/>
<path d="M18.9099 14.0384C18.6499 13.7384 18.2699 13.5684 17.8799 13.5684H14.2999C12.5399 13.5684 11.1099 12.1384 11.1099 10.3784V6.79837C11.1099 6.40837 10.9399 6.02837 10.6399 5.76837C10.3499 5.50837 9.9499 5.38837 9.5699 5.43837C7.2199 5.73837 5.0599 7.02837 3.6499 8.96837C2.2299 10.9184 1.7099 13.2984 2.1599 15.6784C2.8099 19.1184 5.5599 21.8684 9.0099 22.5184C9.5599 22.6284 10.1099 22.6784 10.6599 22.6784C12.4699 22.6784 14.2199 22.1184 15.7099 21.0284C17.6499 19.6184 18.9399 17.4584 19.2399 15.1084C19.2899 14.7184 19.1699 14.3284 18.9099 14.0384Z" fill="#B3B3B3"/>
</svg>
