<svg width="53" height="52" viewBox="0 0 53 52" fill="none" xmlns="http://www.w3.org/2000/svg">
<g id="vuesax/bold/house">
<g id="house">
<path id="Vector" d="M47.7279 46.0419H45.5612V21.6236C45.5612 20.2802 44.9545 19.0236 43.8929 18.2002L41.2279 16.1202L41.1845 10.8119C41.1845 9.62022 40.2095 8.66689 39.0179 8.66689H31.6295L28.7262 6.41355C27.1662 5.17855 24.9562 5.17855 23.3962 6.41355L8.22953 18.2002C7.16786 19.0236 6.5612 20.2802 6.5612 21.6019L6.45286 46.0419H4.39453C3.5062 46.0419 2.76953 46.7786 2.76953 47.6669C2.76953 48.5552 3.5062 49.2919 4.39453 49.2919H47.7279C48.6162 49.2919 49.3529 48.5552 49.3529 47.6669C49.3529 46.7786 48.6162 46.0419 47.7279 46.0419ZM14.1445 27.6252V24.3752C14.1445 23.1836 15.1195 22.2086 16.3112 22.2086H20.6445C21.8362 22.2086 22.8112 23.1836 22.8112 24.3752V27.6252C22.8112 28.8169 21.8362 29.7919 20.6445 29.7919H16.3112C15.1195 29.7919 14.1445 28.8169 14.1445 27.6252ZM31.4779 46.0419H20.6445V40.0836C20.6445 38.2852 22.0962 36.8336 23.8945 36.8336H28.2279C30.0262 36.8336 31.4779 38.2852 31.4779 40.0836V46.0419ZM37.9779 27.6252C37.9779 28.8169 37.0029 29.7919 35.8112 29.7919H31.4779C30.2862 29.7919 29.3112 28.8169 29.3112 27.6252V24.3752C29.3112 23.1836 30.2862 22.2086 31.4779 22.2086H35.8112C37.0029 22.2086 37.9779 23.1836 37.9779 24.3752V27.6252Z" fill="#B3B3B3"/>
</g>
</g>
</svg>
