<svg width="53" height="52" viewBox="0 0 53 52" fill="none" xmlns="http://www.w3.org/2000/svg">
<g id="vuesax/bold/house-2">
<g id="house-2">
<path id="Vector" d="M21.7285 33.5835C20.8402 33.5835 20.1035 34.3202 20.1035 35.2085V38.4585C20.1035 39.3468 20.8402 40.0835 21.7285 40.0835C22.6168 40.0835 23.3535 39.3468 23.3535 38.4585V35.2085C23.3535 34.3202 22.6168 33.5835 21.7285 33.5835Z" fill="#B3B3B3"/>
<path id="Vector_2" d="M47.7279 46.0419H45.5612V21.6236C45.5612 20.2802 44.9545 19.0236 43.8929 18.2002L28.7262 6.41355C27.1662 5.17855 24.9562 5.17855 23.3962 6.41355L8.22953 18.2002C7.16786 19.0236 6.5612 20.2802 6.5612 21.6019L6.45286 46.0419H4.39453C3.5062 46.0419 2.76953 46.7569 2.76953 47.6669C2.76953 48.5552 3.5062 49.2919 4.39453 49.2919H47.7279C48.6162 49.2919 49.3529 48.5552 49.3529 47.6669C49.3529 46.7569 48.6162 46.0419 47.7279 46.0419ZM22.8112 14.6252H29.3112C30.1995 14.6252 30.9362 15.3619 30.9362 16.2502C30.9362 17.1386 30.1995 17.8752 29.3112 17.8752H22.8112C21.9229 17.8752 21.1862 17.1386 21.1862 16.2502C21.1862 15.3619 21.9229 14.6252 22.8112 14.6252ZM36.8945 46.0419H15.2279V27.0836C15.2279 25.2852 16.6795 23.8336 18.4779 23.8336H33.6445C35.4429 23.8336 36.8945 25.2852 36.8945 27.0836V46.0419Z" fill="#B3B3B3"/>
</g>
</g>
</svg>
