<svg width="32" height="32" viewBox="0 0 32 32" fill="none" xmlns="http://www.w3.org/2000/svg">
<path d="M0 8C0 3.58172 3.58172 0 8 0H24C28.4183 0 32 3.58172 32 8V24C32 28.4183 28.4183 32 24 32H8C3.58172 32 0 28.4183 0 24V8Z" fill="#B3B3B3" fill-opacity="0.4"/>
<path opacity="0.4" d="M8.42526 24.5465L8.42537 24.5463L8.4141 24.5386C8.0439 24.2829 7.71706 23.9561 7.46145 23.5859L7.46157 23.5858L7.45455 23.5762C6.84022 22.7303 6.5 21.6003 6.5 20.19V11.81C6.5 10.1835 6.95733 8.92075 7.75069 8.04429C8.54217 7.16991 9.71559 6.62734 11.2519 6.52898L11.2622 6.52832L11.2723 6.52725C11.4437 6.50921 11.6262 6.5 11.81 6.5H20.19C21.6003 6.5 22.7303 6.84022 23.5762 7.45455L23.5761 7.45467L23.5859 7.46145C23.9561 7.71706 24.2829 8.0439 24.5386 8.4141L24.5384 8.41418L24.5454 8.42383C25.1598 9.26965 25.5 10.3997 25.5 11.81V20.19C25.5 21.9106 24.9891 23.2238 24.1064 24.1064C23.2238 24.9891 21.9106 25.5 20.19 25.5H11.81C11.6258 25.5 11.439 25.4908 11.2493 25.4809C10.0969 25.4054 9.15401 25.0797 8.42526 24.5465Z" stroke="#F4F6F9"/>
<path d="M12.2197 6.5V25.5H11.8097C11.7798 25.5 11.7498 25.4998 11.7197 25.4993V6.50074C11.7497 6.50025 11.7797 6.5 11.8097 6.5H12.2197Z" stroke="#F4F6F9"/>
<path d="M19.1461 13.6163L19.1452 13.6172L17.1252 15.6472L16.7734 16.0008L17.1261 16.3534L19.1561 18.3834C19.2508 18.4782 19.2508 18.6416 19.1561 18.7363C19.1071 18.7853 19.0477 18.8099 18.9696 18.8099C18.9051 18.8099 18.8445 18.7876 18.7932 18.7363L16.2332 16.1763C16.1384 16.0816 16.1384 15.9182 16.2332 15.8234L18.7932 13.2634C18.8879 13.1687 19.0513 13.1687 19.1461 13.2634C19.2408 13.3582 19.2408 13.5216 19.1461 13.6163Z" fill="#F4F6F9" stroke="#F4F6F9"/>
</svg>
