<svg width="234" height="53" viewBox="0 0 234 53" fill="none" xmlns="http://www.w3.org/2000/svg">
<path d="M6 16.6782C6 13.3645 8.68629 10.6782 12 10.6782H32C35.3137 10.6782 38 13.3645 38 16.6782V36.6782C38 39.9919 35.3137 42.6782 32 42.6782H12C8.68629 42.6782 6 39.9919 6 36.6782V16.6782Z" fill="#B3B3B3" fill-opacity="0.4"/>
<path d="M26.44 17.7783C24.63 17.7783 23.01 18.6583 22 20.0083C20.99 18.6583 19.37 17.7783 17.56 17.7783C14.49 17.7783 12 20.2783 12 23.3683C12 24.5583 12.19 25.6583 12.52 26.6783C14.1 31.6783 18.97 34.6683 21.38 35.4883C21.72 35.6083 22.28 35.6083 22.62 35.4883C25.03 34.6683 29.9 31.6783 31.48 26.6783C31.81 25.6583 32 24.5583 32 23.3683C32 20.2783 29.51 17.7783 26.44 17.7783Z" fill="#B3B3B3"/>
<path d="M54.404 23.7682C54.08 23.1442 53.63 22.6762 53.054 22.3642C52.478 22.0402 51.812 21.8782 51.056 21.8782C50.228 21.8782 49.49 22.0642 48.842 22.4362C48.194 22.8082 47.684 23.3362 47.312 24.0202C46.952 24.7042 46.772 25.4962 46.772 26.3962C46.772 27.2962 46.952 28.0942 47.312 28.7902C47.684 29.4742 48.194 30.0022 48.842 30.3742C49.49 30.7462 50.228 30.9322 51.056 30.9322C52.172 30.9322 53.078 30.6202 53.774 29.9962C54.47 29.3722 54.896 28.5262 55.052 27.4582H50.354V25.8202H57.248V27.4222C57.116 28.3942 56.768 29.2882 56.204 30.1042C55.652 30.9202 54.926 31.5742 54.026 32.0662C53.138 32.5462 52.148 32.7862 51.056 32.7862C49.88 32.7862 48.806 32.5162 47.834 31.9762C46.862 31.4242 46.088 30.6622 45.512 29.6902C44.948 28.7182 44.666 27.6202 44.666 26.3962C44.666 25.1722 44.948 24.0742 45.512 23.1022C46.088 22.1302 46.862 21.3742 47.834 20.8342C48.818 20.2822 49.892 20.0062 51.056 20.0062C52.388 20.0062 53.57 20.3362 54.602 20.9962C55.646 21.6442 56.402 22.5682 56.87 23.7682H54.404ZM68.2809 22.7602V32.6782H66.2289V31.5082C65.9049 31.9162 65.4789 32.2402 64.9509 32.4802C64.4349 32.7082 63.8829 32.8222 63.2949 32.8222C62.5149 32.8222 61.8129 32.6602 61.1889 32.3362C60.5769 32.0122 60.0909 31.5322 59.7309 30.8962C59.3829 30.2602 59.2089 29.4922 59.2089 28.5922V22.7602H61.2429V28.2862C61.2429 29.1742 61.4649 29.8582 61.9089 30.3382C62.3529 30.8062 62.9589 31.0402 63.7269 31.0402C64.4949 31.0402 65.1009 30.8062 65.5449 30.3382C66.0009 29.8582 66.2289 29.1742 66.2289 28.2862V22.7602H68.2809ZM80.1053 27.4762C80.1053 27.8482 80.0813 28.1842 80.0333 28.4842H72.4553C72.5153 29.2762 72.8093 29.9122 73.3373 30.3922C73.8653 30.8722 74.5133 31.1122 75.2813 31.1122C76.3853 31.1122 77.1653 30.6502 77.6213 29.7262H79.8353C79.5353 30.6382 78.9893 31.3882 78.1973 31.9762C77.4173 32.5522 76.4453 32.8402 75.2813 32.8402C74.3333 32.8402 73.4813 32.6302 72.7253 32.2102C71.9813 31.7782 71.3933 31.1782 70.9613 30.4102C70.5413 29.6302 70.3313 28.7302 70.3313 27.7102C70.3313 26.6902 70.5353 25.7962 70.9433 25.0282C71.3633 24.2482 71.9453 23.6482 72.6893 23.2282C73.4453 22.8082 74.3093 22.5982 75.2813 22.5982C76.2173 22.5982 77.0513 22.8022 77.7833 23.2102C78.5153 23.6182 79.0853 24.1942 79.4933 24.9382C79.9013 25.6702 80.1053 26.5162 80.1053 27.4762ZM77.9633 26.8282C77.9513 26.0722 77.6813 25.4662 77.1533 25.0102C76.6253 24.5542 75.9713 24.3262 75.1913 24.3262C74.4833 24.3262 73.8773 24.5542 73.3733 25.0102C72.8693 25.4542 72.5693 26.0602 72.4733 26.8282H77.9633ZM85.7517 32.8402C84.9717 32.8402 84.2697 32.7022 83.6457 32.4262C83.0337 32.1382 82.5477 31.7542 82.1877 31.2742C81.8277 30.7822 81.6357 30.2362 81.6117 29.6362H83.7357C83.7717 30.0562 83.9697 30.4102 84.3297 30.6982C84.7017 30.9742 85.1637 31.1122 85.7157 31.1122C86.2917 31.1122 86.7357 31.0042 87.0477 30.7882C87.3717 30.5602 87.5337 30.2722 87.5337 29.9242C87.5337 29.5522 87.3537 29.2762 86.9937 29.0962C86.6457 28.9162 86.0877 28.7182 85.3197 28.5022C84.5757 28.2982 83.9697 28.1002 83.5017 27.9082C83.0337 27.7162 82.6257 27.4222 82.2777 27.0262C81.9417 26.6302 81.7737 26.1082 81.7737 25.4602C81.7737 24.9322 81.9297 24.4522 82.2417 24.0202C82.5537 23.5762 82.9977 23.2282 83.5737 22.9762C84.1617 22.7242 84.8337 22.5982 85.5897 22.5982C86.7177 22.5982 87.6237 22.8862 88.3077 23.4622C89.0037 24.0262 89.3757 24.8002 89.4237 25.7842H87.3717C87.3357 25.3402 87.1557 24.9862 86.8317 24.7222C86.5077 24.4582 86.0697 24.3262 85.5177 24.3262C84.9777 24.3262 84.5637 24.4282 84.2757 24.6322C83.9877 24.8362 83.8437 25.1062 83.8437 25.4422C83.8437 25.7062 83.9397 25.9282 84.1317 26.1082C84.3237 26.2882 84.5577 26.4322 84.8337 26.5402C85.1097 26.6362 85.5177 26.7622 86.0577 26.9182C86.7777 27.1102 87.3657 27.3082 87.8217 27.5122C88.2897 27.7042 88.6917 27.9922 89.0277 28.3762C89.3637 28.7602 89.5377 29.2702 89.5497 29.9062C89.5497 30.4702 89.3937 30.9742 89.0817 31.4182C88.7697 31.8622 88.3257 32.2102 87.7497 32.4622C87.1857 32.7142 86.5197 32.8402 85.7517 32.8402ZM94.1879 24.4342V29.9242C94.1879 30.2962 94.2719 30.5662 94.4399 30.7342C94.6199 30.8902 94.9199 30.9682 95.3399 30.9682H96.5999V32.6782H94.9799C94.0559 32.6782 93.3479 32.4622 92.8559 32.0302C92.3639 31.5982 92.1179 30.8962 92.1179 29.9242V24.4342H90.9479V22.7602H92.1179V20.2942H94.1879V22.7602H96.5999V24.4342H94.1879ZM109.719 32.6782L106.839 27.6742H105.273V32.6782H103.221V20.1682H107.541C108.501 20.1682 109.311 20.3362 109.971 20.6722C110.643 21.0082 111.141 21.4582 111.465 22.0222C111.801 22.5862 111.969 23.2162 111.969 23.9122C111.969 24.7282 111.729 25.4722 111.249 26.1442C110.781 26.8042 110.055 27.2542 109.071 27.4942L112.167 32.6782H109.719ZM105.273 26.0362H107.541C108.309 26.0362 108.885 25.8442 109.269 25.4602C109.665 25.0762 109.863 24.5602 109.863 23.9122C109.863 23.2642 109.671 22.7602 109.287 22.4002C108.903 22.0282 108.321 21.8422 107.541 21.8422H105.273V26.0362ZM123.711 27.4762C123.711 27.8482 123.687 28.1842 123.639 28.4842H116.061C116.121 29.2762 116.415 29.9122 116.943 30.3922C117.471 30.8722 118.119 31.1122 118.887 31.1122C119.991 31.1122 120.771 30.6502 121.227 29.7262H123.441C123.141 30.6382 122.595 31.3882 121.803 31.9762C121.023 32.5522 120.051 32.8402 118.887 32.8402C117.939 32.8402 117.087 32.6302 116.331 32.2102C115.587 31.7782 114.999 31.1782 114.567 30.4102C114.147 29.6302 113.937 28.7302 113.937 27.7102C113.937 26.6902 114.141 25.7962 114.549 25.0282C114.969 24.2482 115.551 23.6482 116.295 23.2282C117.051 22.8082 117.915 22.5982 118.887 22.5982C119.823 22.5982 120.657 22.8022 121.389 23.2102C122.121 23.6182 122.691 24.1942 123.099 24.9382C123.507 25.6702 123.711 26.5162 123.711 27.4762ZM121.569 26.8282C121.557 26.0722 121.287 25.4662 120.759 25.0102C120.231 24.5542 119.577 24.3262 118.797 24.3262C118.089 24.3262 117.483 24.5542 116.979 25.0102C116.475 25.4542 116.175 26.0602 116.079 26.8282H121.569ZM129.591 30.8422L132.399 22.7602H134.577L130.797 32.6782H128.349L124.587 22.7602H126.783L129.591 30.8422ZM137.199 21.4462C136.827 21.4462 136.515 21.3202 136.263 21.0682C136.011 20.8162 135.885 20.5042 135.885 20.1322C135.885 19.7602 136.011 19.4482 136.263 19.1962C136.515 18.9442 136.827 18.8182 137.199 18.8182C137.559 18.8182 137.865 18.9442 138.117 19.1962C138.369 19.4482 138.495 19.7602 138.495 20.1322C138.495 20.5042 138.369 20.8162 138.117 21.0682C137.865 21.3202 137.559 21.4462 137.199 21.4462ZM138.207 22.7602V32.6782H136.155V22.7602H138.207ZM150.019 27.4762C150.019 27.8482 149.995 28.1842 149.947 28.4842H142.369C142.429 29.2762 142.723 29.9122 143.251 30.3922C143.779 30.8722 144.427 31.1122 145.195 31.1122C146.299 31.1122 147.079 30.6502 147.535 29.7262H149.749C149.449 30.6382 148.903 31.3882 148.111 31.9762C147.331 32.5522 146.359 32.8402 145.195 32.8402C144.247 32.8402 143.395 32.6302 142.639 32.2102C141.895 31.7782 141.307 31.1782 140.875 30.4102C140.455 29.6302 140.245 28.7302 140.245 27.7102C140.245 26.6902 140.449 25.7962 140.857 25.0282C141.277 24.2482 141.859 23.6482 142.603 23.2282C143.359 22.8082 144.223 22.5982 145.195 22.5982C146.131 22.5982 146.965 22.8022 147.697 23.2102C148.429 23.6182 148.999 24.1942 149.407 24.9382C149.815 25.6702 150.019 26.5162 150.019 27.4762ZM147.877 26.8282C147.865 26.0722 147.595 25.4662 147.067 25.0102C146.539 24.5542 145.885 24.3262 145.105 24.3262C144.397 24.3262 143.791 24.5542 143.287 25.0102C142.783 25.4542 142.483 26.0602 142.387 26.8282H147.877ZM165.385 22.7602L162.307 32.6782H160.147L158.149 25.3522L156.151 32.6782H153.991L150.895 22.7602H152.983L155.053 30.7342L157.159 22.7602H159.301L161.317 30.6982L163.369 22.7602H165.385ZM170.545 32.8402C169.765 32.8402 169.063 32.7022 168.439 32.4262C167.827 32.1382 167.341 31.7542 166.981 31.2742C166.621 30.7822 166.429 30.2362 166.405 29.6362H168.529C168.565 30.0562 168.763 30.4102 169.123 30.6982C169.495 30.9742 169.957 31.1122 170.509 31.1122C171.085 31.1122 171.529 31.0042 171.841 30.7882C172.165 30.5602 172.327 30.2722 172.327 29.9242C172.327 29.5522 172.147 29.2762 171.787 29.0962C171.439 28.9162 170.881 28.7182 170.113 28.5022C169.369 28.2982 168.763 28.1002 168.295 27.9082C167.827 27.7162 167.419 27.4222 167.071 27.0262C166.735 26.6302 166.567 26.1082 166.567 25.4602C166.567 24.9322 166.723 24.4522 167.035 24.0202C167.347 23.5762 167.791 23.2282 168.367 22.9762C168.955 22.7242 169.627 22.5982 170.383 22.5982C171.511 22.5982 172.417 22.8862 173.101 23.4622C173.797 24.0262 174.169 24.8002 174.217 25.7842H172.165C172.129 25.3402 171.949 24.9862 171.625 24.7222C171.301 24.4582 170.863 24.3262 170.311 24.3262C169.771 24.3262 169.357 24.4282 169.069 24.6322C168.781 24.8362 168.637 25.1062 168.637 25.4422C168.637 25.7062 168.733 25.9282 168.925 26.1082C169.117 26.2882 169.351 26.4322 169.627 26.5402C169.903 26.6362 170.311 26.7622 170.851 26.9182C171.571 27.1102 172.159 27.3082 172.615 27.5122C173.083 27.7042 173.485 27.9922 173.821 28.3762C174.157 28.7602 174.331 29.2702 174.343 29.9062C174.343 30.4702 174.187 30.9742 173.875 31.4182C173.563 31.8622 173.119 32.2102 172.543 32.4622C171.979 32.7142 171.313 32.8402 170.545 32.8402Z" fill="#B3B3B3"/>
</svg>
