<svg width="234" height="53" viewBox="0 0 234 53" fill="none" xmlns="http://www.w3.org/2000/svg">
<path d="M6 16.6782C6 13.3645 8.68629 10.6782 12 10.6782H32C35.3137 10.6782 38 13.3645 38 16.6782V36.6782C38 39.9919 35.3137 42.6782 32 42.6782H12C8.68629 42.6782 6 39.9919 6 36.6782V16.6782Z" fill="#B3B3B3" fill-opacity="0.4"/>
<path d="M15 22.6782C13.34 22.6782 12 24.0182 12 25.6782V33.6782C12 35.3382 13.34 36.6782 15 36.6782H16.5C17.6 36.6782 18.5 35.7782 18.5 34.6782V24.6782C18.5 23.5782 17.6 22.6782 16.5 22.6782H15ZM16 31.6782C16 32.0882 15.66 32.4282 15.25 32.4282C14.84 32.4282 14.5 32.0882 14.5 31.6782V27.6782C14.5 27.2682 14.84 26.9282 15.25 26.9282C15.66 26.9282 16 27.2682 16 27.6782V31.6782Z" fill="#B3B3B3"/>
<path d="M29 16.6782H23C21.34 16.6782 20 18.0182 20 19.6782V33.6782C20 35.3382 21.34 36.6782 23 36.6782H23.5C23.78 36.6782 24 36.4582 24 36.1782V32.6782C24 32.1282 24.45 31.6782 25 31.6782H27C27.55 31.6782 28 32.1282 28 32.6782V36.1782C28 36.4582 28.22 36.6782 28.5 36.6782H29C30.66 36.6782 32 35.3382 32 33.6782V19.6782C32 18.0182 30.66 16.6782 29 16.6782ZM24.75 27.6782C24.75 28.0882 24.41 28.4282 24 28.4282C23.59 28.4282 23.25 28.0882 23.25 27.6782V22.6782C23.25 22.2682 23.59 21.9282 24 21.9282C24.41 21.9282 24.75 22.2682 24.75 22.6782V27.6782ZM28.75 27.6782C28.75 28.0882 28.41 28.4282 28 28.4282C27.59 28.4282 27.25 28.0882 27.25 27.6782V22.6782C27.25 22.2682 27.59 21.9282 28 21.9282C28.41 21.9282 28.75 22.2682 28.75 22.6782V27.6782Z" fill="#B3B3B3"/>
<path d="M54.098 23.8942C54.098 24.5302 53.948 25.1302 53.648 25.6942C53.348 26.2582 52.868 26.7202 52.208 27.0802C51.548 27.4282 50.702 27.6022 49.67 27.6022H47.402V32.6782H45.35V20.1682H49.67C50.63 20.1682 51.44 20.3362 52.1 20.6722C52.772 20.9962 53.27 21.4402 53.594 22.0042C53.93 22.5682 54.098 23.1982 54.098 23.8942ZM49.67 25.9282C50.45 25.9282 51.032 25.7542 51.416 25.4062C51.8 25.0462 51.992 24.5422 51.992 23.8942C51.992 22.5262 51.218 21.8422 49.67 21.8422H47.402V25.9282H49.67ZM58.1341 24.2002C58.4341 23.6962 58.8301 23.3062 59.3221 23.0302C59.8261 22.7422 60.4201 22.5982 61.1041 22.5982V24.7222H60.5821C59.7781 24.7222 59.1661 24.9262 58.7461 25.3342C58.3381 25.7422 58.1341 26.4502 58.1341 27.4582V32.6782H56.0821V22.7602H58.1341V24.2002ZM67.3193 32.8402C66.3833 32.8402 65.5373 32.6302 64.7813 32.2102C64.0253 31.7782 63.4313 31.1782 62.9993 30.4102C62.5673 29.6302 62.3513 28.7302 62.3513 27.7102C62.3513 26.7022 62.5733 25.8082 63.0173 25.0282C63.4613 24.2482 64.0673 23.6482 64.8353 23.2282C65.6033 22.8082 66.4613 22.5982 67.4093 22.5982C68.3573 22.5982 69.2153 22.8082 69.9833 23.2282C70.7513 23.6482 71.3573 24.2482 71.8013 25.0282C72.2453 25.8082 72.4673 26.7022 72.4673 27.7102C72.4673 28.7182 72.2393 29.6122 71.7833 30.3922C71.3273 31.1722 70.7033 31.7782 69.9113 32.2102C69.1313 32.6302 68.2673 32.8402 67.3193 32.8402ZM67.3193 31.0582C67.8473 31.0582 68.3393 30.9322 68.7953 30.6802C69.2633 30.4282 69.6413 30.0502 69.9293 29.5462C70.2173 29.0422 70.3613 28.4302 70.3613 27.7102C70.3613 26.9902 70.2233 26.3842 69.9473 25.8922C69.6713 25.3882 69.3053 25.0102 68.8493 24.7582C68.3933 24.5062 67.9013 24.3802 67.3733 24.3802C66.8453 24.3802 66.3533 24.5062 65.8973 24.7582C65.4533 25.0102 65.0993 25.3882 64.8353 25.8922C64.5713 26.3842 64.4393 26.9902 64.4393 27.7102C64.4393 28.7782 64.7093 29.6062 65.2493 30.1942C65.8013 30.7702 66.4913 31.0582 67.3193 31.0582ZM76.5748 24.2182C76.9228 23.7622 77.3968 23.3782 77.9968 23.0662C78.5968 22.7542 79.2748 22.5982 80.0308 22.5982C80.8948 22.5982 81.6808 22.8142 82.3888 23.2462C83.1088 23.6662 83.6728 24.2602 84.0808 25.0282C84.4888 25.7962 84.6928 26.6782 84.6928 27.6742C84.6928 28.6702 84.4888 29.5642 84.0808 30.3562C83.6728 31.1362 83.1088 31.7482 82.3888 32.1922C81.6808 32.6242 80.8948 32.8402 80.0308 32.8402C79.2748 32.8402 78.6028 32.6902 78.0148 32.3902C77.4268 32.0782 76.9468 31.6942 76.5748 31.2382V37.3942H74.5228V22.7602H76.5748V24.2182ZM82.6048 27.6742C82.6048 26.9902 82.4608 26.4022 82.1728 25.9102C81.8968 25.4062 81.5248 25.0282 81.0568 24.7762C80.6008 24.5122 80.1088 24.3802 79.5808 24.3802C79.0648 24.3802 78.5728 24.5122 78.1048 24.7762C77.6488 25.0402 77.2768 25.4242 76.9888 25.9282C76.7128 26.4322 76.5748 27.0262 76.5748 27.7102C76.5748 28.3942 76.7128 28.9942 76.9888 29.5102C77.2768 30.0142 77.6488 30.3982 78.1048 30.6622C78.5728 30.9262 79.0648 31.0582 79.5808 31.0582C80.1088 31.0582 80.6008 30.9262 81.0568 30.6622C81.5248 30.3862 81.8968 29.9902 82.1728 29.4742C82.4608 28.9582 82.6048 28.3582 82.6048 27.6742ZM95.839 27.4762C95.839 27.8482 95.815 28.1842 95.767 28.4842H88.189C88.249 29.2762 88.543 29.9122 89.071 30.3922C89.599 30.8722 90.247 31.1122 91.015 31.1122C92.119 31.1122 92.899 30.6502 93.355 29.7262H95.569C95.269 30.6382 94.723 31.3882 93.931 31.9762C93.151 32.5522 92.179 32.8402 91.015 32.8402C90.067 32.8402 89.215 32.6302 88.459 32.2102C87.715 31.7782 87.127 31.1782 86.695 30.4102C86.275 29.6302 86.065 28.7302 86.065 27.7102C86.065 26.6902 86.269 25.7962 86.677 25.0282C87.097 24.2482 87.679 23.6482 88.423 23.2282C89.179 22.8082 90.043 22.5982 91.015 22.5982C91.951 22.5982 92.785 22.8022 93.517 23.2102C94.249 23.6182 94.819 24.1942 95.227 24.9382C95.635 25.6702 95.839 26.5162 95.839 27.4762ZM93.697 26.8282C93.685 26.0722 93.415 25.4662 92.887 25.0102C92.359 24.5542 91.705 24.3262 90.925 24.3262C90.217 24.3262 89.611 24.5542 89.107 25.0102C88.603 25.4542 88.303 26.0602 88.207 26.8282H93.697ZM99.9374 24.2002C100.237 23.6962 100.633 23.3062 101.125 23.0302C101.629 22.7422 102.223 22.5982 102.907 22.5982V24.7222H102.385C101.581 24.7222 100.969 24.9262 100.549 25.3342C100.141 25.7422 99.9374 26.4502 99.9374 27.4582V32.6782H97.8854V22.7602H99.9374V24.2002ZM107.215 24.4342V29.9242C107.215 30.2962 107.299 30.5662 107.467 30.7342C107.647 30.8902 107.947 30.9682 108.367 30.9682H109.627V32.6782H108.007C107.083 32.6782 106.375 32.4622 105.883 32.0302C105.391 31.5982 105.145 30.8962 105.145 29.9242V24.4342H103.975V22.7602H105.145V20.2942H107.215V22.7602H109.627V24.4342H107.215ZM120.473 22.7602L114.389 37.3402H112.265L114.281 32.5162L110.375 22.7602H112.661L115.451 30.3202L118.349 22.7602H120.473Z" fill="#B3B3B3"/>
</svg>
