<svg width="197" height="53" viewBox="0 0 197 53" fill="none" xmlns="http://www.w3.org/2000/svg">
<path d="M6 16.6782C6 13.3645 8.68629 10.6782 12 10.6782H32C35.3137 10.6782 38 13.3645 38 16.6782V36.6782C38 39.9919 35.3137 42.6782 32 42.6782H12C8.68629 42.6782 6 39.9919 6 36.6782V16.6782Z" fill="#B3B3B3" fill-opacity="0.4"/>
<path d="M26.7502 18.2382V16.6782C26.7502 16.2682 26.4102 15.9282 26.0002 15.9282C25.5902 15.9282 25.2502 16.2682 25.2502 16.6782V18.1782H18.7502V16.6782C18.7502 16.2682 18.4102 15.9282 18.0002 15.9282C17.5902 15.9282 17.2502 16.2682 17.2502 16.6782V18.2382C14.5502 18.4882 13.2402 20.0982 13.0402 22.4882C13.0202 22.7782 13.2602 23.0182 13.5402 23.0182H30.4602C30.7502 23.0182 30.9902 22.7682 30.9602 22.4882C30.7602 20.0982 29.4502 18.4882 26.7502 18.2382Z" fill="#B3B3B3"/>
<path d="M30 24.5181H14C13.45 24.5181 13 24.9681 13 25.5181V31.6781C13 34.6781 14.5 36.6781 18 36.6781H26C29.5 36.6781 31 34.6781 31 31.6781V25.5181C31 24.9681 30.55 24.5181 30 24.5181ZM19.21 32.8881C19.11 32.9781 19 33.0481 18.88 33.0981C18.76 33.1481 18.63 33.1781 18.5 33.1781C18.37 33.1781 18.24 33.1481 18.12 33.0981C18 33.0481 17.89 32.9781 17.79 32.8881C17.61 32.6981 17.5 32.4381 17.5 32.1781C17.5 31.9181 17.61 31.6581 17.79 31.4681C17.89 31.3781 18 31.3081 18.12 31.2581C18.36 31.1581 18.64 31.1581 18.88 31.2581C19 31.3081 19.11 31.3781 19.21 31.4681C19.39 31.6581 19.5 31.9181 19.5 32.1781C19.5 32.4381 19.39 32.6981 19.21 32.8881ZM19.42 29.0581C19.37 29.1781 19.3 29.2881 19.21 29.3881C19.11 29.4781 19 29.5481 18.88 29.5981C18.76 29.6481 18.63 29.6781 18.5 29.6781C18.37 29.6781 18.24 29.6481 18.12 29.5981C18 29.5481 17.89 29.4781 17.79 29.3881C17.7 29.2881 17.63 29.1781 17.58 29.0581C17.53 28.9381 17.5 28.8081 17.5 28.6781C17.5 28.5481 17.53 28.4181 17.58 28.2981C17.63 28.1781 17.7 28.0681 17.79 27.9681C17.89 27.8781 18 27.8081 18.12 27.7581C18.36 27.6581 18.64 27.6581 18.88 27.7581C19 27.8081 19.11 27.8781 19.21 27.9681C19.3 28.0681 19.37 28.1781 19.42 28.2981C19.47 28.4181 19.5 28.5481 19.5 28.6781C19.5 28.8081 19.47 28.9381 19.42 29.0581ZM22.71 29.3881C22.61 29.4781 22.5 29.5481 22.38 29.5981C22.26 29.6481 22.13 29.6781 22 29.6781C21.87 29.6781 21.74 29.6481 21.62 29.5981C21.5 29.5481 21.39 29.4781 21.29 29.3881C21.11 29.1981 21 28.9381 21 28.6781C21 28.4181 21.11 28.1581 21.29 27.9681C21.39 27.8781 21.5 27.8081 21.62 27.7581C21.86 27.6481 22.14 27.6481 22.38 27.7581C22.5 27.8081 22.61 27.8781 22.71 27.9681C22.89 28.1581 23 28.4181 23 28.6781C23 28.9381 22.89 29.1981 22.71 29.3881Z" fill="#B3B3B3"/>
<path d="M51.848 32.6782L48.968 27.6742H47.402V32.6782H45.35V20.1682H49.67C50.63 20.1682 51.44 20.3362 52.1 20.6722C52.772 21.0082 53.27 21.4582 53.594 22.0222C53.93 22.5862 54.098 23.2162 54.098 23.9122C54.098 24.7282 53.858 25.4722 53.378 26.1442C52.91 26.8042 52.184 27.2542 51.2 27.4942L54.296 32.6782H51.848ZM47.402 26.0362H49.67C50.438 26.0362 51.014 25.8442 51.398 25.4602C51.794 25.0762 51.992 24.5602 51.992 23.9122C51.992 23.2642 51.8 22.7602 51.416 22.4002C51.032 22.0282 50.45 21.8422 49.67 21.8422H47.402V26.0362ZM56.066 27.6742C56.066 26.6782 56.27 25.7962 56.678 25.0282C57.098 24.2602 57.662 23.6662 58.37 23.2462C59.09 22.8142 59.882 22.5982 60.746 22.5982C61.526 22.5982 62.204 22.7542 62.78 23.0662C63.368 23.3662 63.836 23.7442 64.184 24.2002V22.7602H66.254V32.6782H64.184V31.2022C63.836 31.6702 63.362 32.0602 62.762 32.3722C62.162 32.6842 61.478 32.8402 60.71 32.8402C59.858 32.8402 59.078 32.6242 58.37 32.1922C57.662 31.7482 57.098 31.1362 56.678 30.3562C56.27 29.5642 56.066 28.6702 56.066 27.6742ZM64.184 27.7102C64.184 27.0262 64.04 26.4322 63.752 25.9282C63.476 25.4242 63.11 25.0402 62.654 24.7762C62.198 24.5122 61.706 24.3802 61.178 24.3802C60.65 24.3802 60.158 24.5122 59.702 24.7762C59.246 25.0282 58.874 25.4062 58.586 25.9102C58.31 26.4022 58.172 26.9902 58.172 27.6742C58.172 28.3582 58.31 28.9582 58.586 29.4742C58.874 29.9902 59.246 30.3862 59.702 30.6622C60.17 30.9262 60.662 31.0582 61.178 31.0582C61.706 31.0582 62.198 30.9262 62.654 30.6622C63.11 30.3982 63.476 30.0142 63.752 29.5102C64.04 28.9942 64.184 28.3942 64.184 27.7102ZM71.3703 24.4342V29.9242C71.3703 30.2962 71.4543 30.5662 71.6223 30.7342C71.8023 30.8902 72.1023 30.9682 72.5223 30.9682H73.7823V32.6782H72.1623C71.2383 32.6782 70.5303 32.4622 70.0383 32.0302C69.5463 31.5982 69.3003 30.8962 69.3003 29.9242V24.4342H68.1303V22.7602H69.3003V20.2942H71.3703V22.7602H73.7823V24.4342H71.3703ZM84.7905 27.4762C84.7905 27.8482 84.7665 28.1842 84.7185 28.4842H77.1405C77.2005 29.2762 77.4945 29.9122 78.0225 30.3922C78.5505 30.8722 79.1985 31.1122 79.9665 31.1122C81.0705 31.1122 81.8505 30.6502 82.3065 29.7262H84.5205C84.2205 30.6382 83.6745 31.3882 82.8825 31.9762C82.1025 32.5522 81.1305 32.8402 79.9665 32.8402C79.0185 32.8402 78.1665 32.6302 77.4105 32.2102C76.6665 31.7782 76.0785 31.1782 75.6465 30.4102C75.2265 29.6302 75.0165 28.7302 75.0165 27.7102C75.0165 26.6902 75.2205 25.7962 75.6285 25.0282C76.0485 24.2482 76.6305 23.6482 77.3745 23.2282C78.1305 22.8082 78.9945 22.5982 79.9665 22.5982C80.9025 22.5982 81.7365 22.8022 82.4685 23.2102C83.2005 23.6182 83.7705 24.1942 84.1785 24.9382C84.5865 25.6702 84.7905 26.5162 84.7905 27.4762ZM82.6485 26.8282C82.6365 26.0722 82.3665 25.4662 81.8385 25.0102C81.3105 24.5542 80.6565 24.3262 79.8765 24.3262C79.1685 24.3262 78.5625 24.5542 78.0585 25.0102C77.5545 25.4542 77.2545 26.0602 77.1585 26.8282H82.6485ZM90.4369 32.8402C89.6569 32.8402 88.9549 32.7022 88.3309 32.4262C87.7189 32.1382 87.2329 31.7542 86.8729 31.2742C86.5129 30.7822 86.3209 30.2362 86.2969 29.6362H88.4209C88.4569 30.0562 88.6549 30.4102 89.0149 30.6982C89.3869 30.9742 89.8489 31.1122 90.4009 31.1122C90.9769 31.1122 91.4209 31.0042 91.7329 30.7882C92.0569 30.5602 92.2189 30.2722 92.2189 29.9242C92.2189 29.5522 92.0389 29.2762 91.6789 29.0962C91.3309 28.9162 90.7729 28.7182 90.0049 28.5022C89.2609 28.2982 88.6549 28.1002 88.1869 27.9082C87.7189 27.7162 87.3109 27.4222 86.9629 27.0262C86.6269 26.6302 86.4589 26.1082 86.4589 25.4602C86.4589 24.9322 86.6149 24.4522 86.9269 24.0202C87.2389 23.5762 87.6829 23.2282 88.2589 22.9762C88.8469 22.7242 89.5189 22.5982 90.2749 22.5982C91.4029 22.5982 92.3089 22.8862 92.9929 23.4622C93.6889 24.0262 94.0609 24.8002 94.1089 25.7842H92.0569C92.0209 25.3402 91.8409 24.9862 91.5169 24.7222C91.1929 24.4582 90.7549 24.3262 90.2029 24.3262C89.6629 24.3262 89.2489 24.4282 88.9609 24.6322C88.6729 24.8362 88.5289 25.1062 88.5289 25.4422C88.5289 25.7062 88.6249 25.9282 88.8169 26.1082C89.0089 26.2882 89.2429 26.4322 89.5189 26.5402C89.7949 26.6362 90.2029 26.7622 90.7429 26.9182C91.4629 27.1102 92.0509 27.3082 92.5069 27.5122C92.9749 27.7042 93.3769 27.9922 93.7129 28.3762C94.0489 28.7602 94.2229 29.2702 94.2349 29.9062C94.2349 30.4702 94.0789 30.9742 93.7669 31.4182C93.4549 31.8622 93.0109 32.2102 92.4349 32.4622C91.8709 32.7142 91.2049 32.8402 90.4369 32.8402ZM110.848 32.6782L109.3 31.1302C108.7 31.7302 108.046 32.1802 107.338 32.4802C106.63 32.7682 105.838 32.9122 104.962 32.9122C104.074 32.9122 103.288 32.7562 102.604 32.4442C101.92 32.1322 101.392 31.6882 101.02 31.1122C100.648 30.5242 100.462 29.8462 100.462 29.0782C100.462 28.2142 100.708 27.4462 101.2 26.7742C101.692 26.0902 102.424 25.5502 103.396 25.1542C103.048 24.7342 102.802 24.3442 102.658 23.9842C102.514 23.6122 102.442 23.2042 102.442 22.7602C102.442 22.2082 102.58 21.7162 102.856 21.2842C103.144 20.8522 103.552 20.5102 104.08 20.2582C104.608 20.0062 105.22 19.8802 105.916 19.8802C106.624 19.8802 107.224 20.0182 107.716 20.2942C108.22 20.5582 108.592 20.9242 108.832 21.3922C109.084 21.8602 109.186 22.3822 109.138 22.9582H107.086C107.098 22.5142 106.99 22.1722 106.762 21.9322C106.534 21.6802 106.222 21.5542 105.826 21.5542C105.43 21.5542 105.106 21.6742 104.854 21.9142C104.614 22.1422 104.494 22.4242 104.494 22.7602C104.494 23.0842 104.584 23.4082 104.764 23.7322C104.956 24.0442 105.286 24.4522 105.754 24.9562L109.066 28.2502L110.344 26.1442H112.558L110.938 28.9162L110.488 29.6542L113.53 32.6782H110.848ZM104.962 31.1662C106.09 31.1662 107.086 30.7042 107.95 29.7802L104.638 26.4502C103.222 27.0142 102.514 27.8662 102.514 29.0062C102.514 29.6182 102.742 30.1342 103.198 30.5542C103.654 30.9622 104.242 31.1662 104.962 31.1662ZM127.147 30.1222H121.909L121.009 32.6782H118.867L123.349 20.1502H125.725L130.207 32.6782H128.047L127.147 30.1222ZM126.571 28.4482L124.537 22.6342L122.485 28.4482H126.571ZM136.017 30.8422L138.825 22.7602H141.003L137.223 32.6782H134.775L131.013 22.7602H133.209L136.017 30.8422ZM143.625 21.4462C143.253 21.4462 142.941 21.3202 142.689 21.0682C142.437 20.8162 142.311 20.5042 142.311 20.1322C142.311 19.7602 142.437 19.4482 142.689 19.1962C142.941 18.9442 143.253 18.8182 143.625 18.8182C143.985 18.8182 144.291 18.9442 144.543 19.1962C144.795 19.4482 144.921 19.7602 144.921 20.1322C144.921 20.5042 144.795 20.8162 144.543 21.0682C144.291 21.3202 143.985 21.4462 143.625 21.4462ZM144.633 22.7602V32.6782H142.581V22.7602H144.633ZM146.67 27.6742C146.67 26.6782 146.874 25.7962 147.282 25.0282C147.702 24.2602 148.266 23.6662 148.974 23.2462C149.694 22.8142 150.486 22.5982 151.35 22.5982C152.13 22.5982 152.808 22.7542 153.384 23.0662C153.972 23.3662 154.44 23.7442 154.788 24.2002V22.7602H156.858V32.6782H154.788V31.2022C154.44 31.6702 153.966 32.0602 153.366 32.3722C152.766 32.6842 152.082 32.8402 151.314 32.8402C150.462 32.8402 149.682 32.6242 148.974 32.1922C148.266 31.7482 147.702 31.1362 147.282 30.3562C146.874 29.5642 146.67 28.6702 146.67 27.6742ZM154.788 27.7102C154.788 27.0262 154.644 26.4322 154.356 25.9282C154.08 25.4242 153.714 25.0402 153.258 24.7762C152.802 24.5122 152.31 24.3802 151.782 24.3802C151.254 24.3802 150.762 24.5122 150.306 24.7762C149.85 25.0282 149.478 25.4062 149.19 25.9102C148.914 26.4022 148.776 26.9902 148.776 27.6742C148.776 28.3582 148.914 28.9582 149.19 29.4742C149.478 29.9902 149.85 30.3862 150.306 30.6622C150.774 30.9262 151.266 31.0582 151.782 31.0582C152.31 31.0582 152.802 30.9262 153.258 30.6622C153.714 30.3982 154.08 30.0142 154.356 29.5102C154.644 28.9942 154.788 28.3942 154.788 27.7102ZM161.632 24.2362C161.98 23.7562 162.454 23.3662 163.054 23.0662C163.666 22.7542 164.344 22.5982 165.088 22.5982C165.964 22.5982 166.756 22.8082 167.464 23.2282C168.172 23.6482 168.73 24.2482 169.138 25.0282C169.546 25.7962 169.75 26.6782 169.75 27.6742C169.75 28.6702 169.546 29.5642 169.138 30.3562C168.73 31.1362 168.166 31.7482 167.446 32.1922C166.738 32.6242 165.952 32.8402 165.088 32.8402C164.32 32.8402 163.636 32.6902 163.036 32.3902C162.448 32.0902 161.98 31.7062 161.632 31.2382V32.6782H159.58V19.3582H161.632V24.2362ZM167.662 27.6742C167.662 26.9902 167.518 26.4022 167.23 25.9102C166.954 25.4062 166.582 25.0282 166.114 24.7762C165.658 24.5122 165.166 24.3802 164.638 24.3802C164.122 24.3802 163.63 24.5122 163.162 24.7762C162.706 25.0402 162.334 25.4242 162.046 25.9282C161.77 26.4322 161.632 27.0262 161.632 27.7102C161.632 28.3942 161.77 28.9942 162.046 29.5102C162.334 30.0142 162.706 30.3982 163.162 30.6622C163.63 30.9262 164.122 31.0582 164.638 31.0582C165.166 31.0582 165.658 30.9262 166.114 30.6622C166.582 30.3862 166.954 29.9902 167.23 29.4742C167.518 28.9582 167.662 28.3582 167.662 27.6742ZM173.858 19.3582V32.6782H171.806V19.3582H173.858ZM177.624 21.4462C177.252 21.4462 176.94 21.3202 176.688 21.0682C176.436 20.8162 176.31 20.5042 176.31 20.1322C176.31 19.7602 176.436 19.4482 176.688 19.1962C176.94 18.9442 177.252 18.8182 177.624 18.8182C177.984 18.8182 178.29 18.9442 178.542 19.1962C178.794 19.4482 178.92 19.7602 178.92 20.1322C178.92 20.5042 178.794 20.8162 178.542 21.0682C178.29 21.3202 177.984 21.4462 177.624 21.4462ZM178.632 22.7602V32.6782H176.58V22.7602H178.632ZM183.747 24.4342V29.9242C183.747 30.2962 183.831 30.5662 183.999 30.7342C184.179 30.8902 184.479 30.9682 184.899 30.9682H186.159V32.6782H184.539C183.615 32.6782 182.907 32.4622 182.415 32.0302C181.923 31.5982 181.677 30.8962 181.677 29.9242V24.4342H180.507V22.7602H181.677V20.2942H183.747V22.7602H186.159V24.4342H183.747ZM197.005 22.7602L190.921 37.3402H188.797L190.813 32.5162L186.907 22.7602H189.193L191.983 30.3202L194.881 22.7602H197.005Z" fill="#B3B3B3"/>
</svg>
