<svg width="24" height="25" viewBox="0 0 24 25" fill="none" xmlns="http://www.w3.org/2000/svg">
<path d="M19.5 8.67822C20.8807 8.67822 22 7.55893 22 6.17822C22 4.79751 20.8807 3.67822 19.5 3.67822C18.1193 3.67822 17 4.79751 17 6.17822C17 7.55893 18.1193 8.67822 19.5 8.67822Z" fill="#B3B3B3"/>
<path d="M19.5 8.67822C20.8807 8.67822 22 7.55893 22 6.17822C22 4.79751 20.8807 3.67822 19.5 3.67822C18.1193 3.67822 17 4.79751 17 6.17822C17 7.55893 18.1193 8.67822 19.5 8.67822Z" fill="#B3B3B3"/>
<path d="M20.72 9.98822C20.02 10.2082 19.25 10.2482 18.45 10.0482C17.11 9.69822 16.02 8.62822 15.65 7.28822C15.47 6.63822 15.46 5.99822 15.57 5.41822C15.7 4.77822 15.25 4.17822 14.61 4.17822H7C4 4.17822 2 5.67822 2 9.17822V16.1782C2 19.6782 4 21.1782 7 21.1782H17C20 21.1782 22 19.6782 22 16.1782V10.9382C22 10.2782 21.36 9.77822 20.72 9.98822ZM15.52 11.8282L14.34 12.7682C13.68 13.2982 12.84 13.5582 12 13.5582C11.16 13.5582 10.31 13.2982 9.66 12.7682L6.53 10.2682C6.21 10.0082 6.16 9.52822 6.41 9.20822C6.67 8.88822 7.14 8.82822 7.46 9.08822L10.59 11.5882C11.35 12.1982 12.64 12.1982 13.4 11.5882L14.58 10.6482C14.9 10.3882 15.38 10.4382 15.63 10.7682C15.89 11.0882 15.84 11.5682 15.52 11.8282Z" fill="#B3B3B3"/>
</svg>
