<svg xmlns="http://www.w3.org/2000/svg" width="18" height="18" fill="none"><path fill="#D99E20" d="M5.858 1.5h6.285c2.73 0 4.357 1.628 4.357 4.358v6.277c0 2.738-1.627 4.365-4.357 4.365H5.865c-2.73 0-4.357-1.627-4.357-4.357V5.857C1.5 3.128 3.128 1.5 5.858 1.5M4.5 9.563h3.938V13.5c0 .307.255.563.562.563a.567.567 0 0 0 .563-.563V9.563H13.5A.567.567 0 0 0 14.063 9a.567.567 0 0 0-.563-.562H9.563V4.5A.567.567 0 0 0 9 3.938a.567.567 0 0 0-.562.562v3.938H4.5A.567.567 0 0 0 3.938 9c0 .307.254.563.562.563"/></svg>