<svg width="18" height="18" viewBox="0 0 18 18" fill="none" xmlns="http://www.w3.org/2000/svg">
<path d="M5.8575 1.5H12.1425C14.8725 1.5 16.5 3.1275 16.5 5.8575V12.135C16.5 14.8725 14.8725 16.5 12.1425 16.5H5.865C3.135 16.5 1.5075 14.8725 1.5075 12.1425V5.8575C1.5 3.1275 3.1275 1.5 5.8575 1.5ZM4.5 9.5625H8.4375V13.5C8.4375 13.8075 8.6925 14.0625 9 14.0625C9.3075 14.0625 9.5625 13.8075 9.5625 13.5V9.5625H13.5C13.8075 9.5625 14.0625 9.3075 14.0625 9C14.0625 8.6925 13.8075 8.4375 13.5 8.4375H9.5625V4.5C9.5625 4.1925 9.3075 3.9375 9 3.9375C8.6925 3.9375 8.4375 4.1925 8.4375 4.5V8.4375H4.5C4.1925 8.4375 3.9375 8.6925 3.9375 9C3.9375 9.3075 4.1925 9.5625 4.5 9.5625Z" fill="#D99E20"/>
</svg>
