<svg width="11" height="11" viewBox="0 0 11 11" fill="none" xmlns="http://www.w3.org/2000/svg">
<g clip-path="url(#clip0_7183_22766)">
<path d="M9.65927 2.68497H2.15927C2.08333 2.68521 2.0089 2.70615 1.94398 2.74555C1.87907 2.78494 1.82612 2.84129 1.79085 2.90854C1.75558 2.97578 1.73931 3.05137 1.74381 3.12718C1.7483 3.20298 1.77338 3.27612 1.81635 3.33872L5.56635 8.75539C5.72177 8.97997 6.09593 8.97997 6.25177 8.75539L10.0018 3.33872C10.0452 3.27625 10.0706 3.20307 10.0754 3.12714C10.0801 3.05122 10.0639 2.97544 10.0286 2.90805C9.99333 2.84067 9.94023 2.78424 9.87511 2.74491C9.80999 2.70558 9.73534 2.68485 9.65927 2.68497Z" fill="#2F32DE"/>
</g>
<defs>
<clipPath id="clip0_7183_22766">
<rect width="10" height="10" fill="white" transform="matrix(-1 0 0 -1 10.9092 10.6016)"/>
</clipPath>
</defs>
</svg>
