<svg width="11" height="11" viewBox="0 0 11 11" fill="none" xmlns="http://www.w3.org/2000/svg">
<g clip-path="url(#clip0_7179_22764)">
<path d="M9.65927 8.51815H2.15927C2.08333 8.51791 2.0089 8.49697 1.94398 8.45758C1.87907 8.41818 1.82612 8.36183 1.79085 8.29459C1.75558 8.22734 1.73931 8.15175 1.74381 8.07595C1.7483 8.00015 1.77338 7.92701 1.81635 7.8644L5.56635 2.44773C5.72177 2.22315 6.09593 2.22315 6.25177 2.44773L10.0018 7.8644C10.0452 7.92688 10.0706 8.00005 10.0754 8.07598C10.0801 8.15191 10.0639 8.22768 10.0286 8.29507C9.99333 8.36246 9.94023 8.41888 9.87511 8.45821C9.80999 8.49754 9.73534 8.51827 9.65927 8.51815Z" fill="#2F32DE"/>
</g>
<defs>
<clipPath id="clip0_7179_22764">
<rect width="10" height="10" fill="white" transform="matrix(-1 0 0 1 10.9092 0.601562)"/>
</clipPath>
</defs>
</svg>
