<svg xmlns="http://www.w3.org/2000/svg" width="77" height="77" fill="none"><path stroke="#2F32DE" stroke-width="3.156" d="M22.719 14.828h7.954a18 18 0 0 0-.064 1.578v7.89H17.984v-4.733c0-2.6 2.134-4.735 4.735-4.735Z" opacity=".6"/><path fill="#2F32DE" stroke="#2F32DE" stroke-width="3.156" d="M30.61 60.594c0 3.216.761 5.931 2.52 7.89H16.405c-2.913 0-4.808-.727-5.985-1.905s-1.905-3.072-1.905-5.985v-25.25c0-2.913.727-4.808 1.905-5.986s3.072-1.905 5.985-1.905H30.61zm-11.047-2.367a3.963 3.963 0 0 0 3.945-3.946V41.656a3.96 3.96 0 0 0-3.945-3.945 3.96 3.96 0 0 0-3.946 3.945v12.625a3.963 3.963 0 0 0 3.945 3.946Z"/><path fill="#2F32DE" d="M44.813 70.063h-3.157q-9.468 0-9.468-9.47V16.407q0-9.468 9.468-9.468h18.938q9.468 0 9.468 9.468v44.188q0 9.468-9.468 9.468h-3.157" opacity=".4"/><path fill="#2F32DE" d="M57.438 57.438v12.624H44.812V57.439a3.166 3.166 0 0 1 3.157-3.157h6.312a3.166 3.166 0 0 1 3.157 3.157M44.813 44.023a2.384 2.384 0 0 1-2.368-2.367V25.875a2.384 2.384 0 0 1 2.367-2.367 2.384 2.384 0 0 1 2.368 2.367v15.781a2.384 2.384 0 0 1-2.367 2.367M57.438 44.023a2.384 2.384 0 0 1-2.368-2.367V25.875a2.384 2.384 0 0 1 2.367-2.367 2.384 2.384 0 0 1 2.368 2.367v15.781a2.384 2.384 0 0 1-2.367 2.367"/></svg>