<svg xmlns="http://www.w3.org/2000/svg" width="26" height="25" fill="none"><path fill="#D99E20" d="M11.556 4.405v1.907H10.03c-1.66 0-2.496.836-2.496 2.496v9.88h-2.63c-1.474 0-2.216-.743-2.216-2.218V4.405c0-1.475.742-2.218 2.217-2.218h4.434c1.475 0 2.217.743 2.217 2.218"/><path fill="#D99E20" d="M18.538 8.808v11.509c0 1.66-.825 2.496-2.485 2.496H10.03c-1.66 0-2.495-.836-2.495-2.496V8.808c0-1.66.835-2.495 2.495-2.495h6.023c1.66 0 2.485.835 2.485 2.495" opacity=".4"/><path fill="#D99E20" d="M23.313 4.405V16.47c0 1.475-.742 2.218-2.217 2.218h-2.558v-9.88c0-1.66-.825-2.495-2.485-2.495h-1.609V4.405c0-1.475.743-2.218 2.217-2.218h4.435c1.474 0 2.217.743 2.217 2.218M15.063 12.242h-4.126a.78.78 0 0 1-.773-.773c0-.423.35-.774.774-.774h4.124c.423 0 .774.35.774.774 0 .423-.35.773-.774.773M15.063 15.336h-4.126a.78.78 0 0 1-.773-.774c0-.422.35-.773.774-.773h4.124c.423 0 .774.35.774.774 0 .422-.35.773-.774.773M13.773 19.719v3.093h-1.546V19.72c0-.423.35-.774.773-.774s.773.35.773.774"/></svg>