<svg xmlns="http://www.w3.org/2000/svg" width="33" height="32" fill="none"><path fill="#fff" d="M32.5 16c0-8.837-7.163-16-16-16S.5 7.163.5 16s7.163 16 16 16 16-7.163 16-16"/><path fill="#2F32DE" d="M18.38 11.315a.82.82 0 0 1 1.164 0l4.103 4.103a.82.82 0 0 1 0 1.165l-4.103 4.102a.82.82 0 0 1-1.165 0 .82.82 0 0 1 0-1.165L21.907 16l-3.528-3.52a.82.82 0 0 1 0-1.165M12.221 11.32a.82.82 0 0 1 1.165 0l4.103 4.102a.82.82 0 0 1 0 1.165l-4.103 4.103a.82.82 0 0 1-1.345-.267.82.82 0 0 1 .18-.898l3.528-3.52-3.528-3.52a.82.82 0 0 1 0-1.165"/></svg>