<svg xmlns="http://www.w3.org/2000/svg" width="33" height="32" fill="none"><path fill="#fff" d="M.5 16c0-8.837 7.163-16 16-16s16 7.163 16 16-7.163 16-16 16-16-7.163-16-16"/><path fill="#2F32DE" d="M14.62 11.315a.82.82 0 0 0-1.164 0l-4.103 4.103a.82.82 0 0 0 0 1.165l4.103 4.102a.82.82 0 0 0 1.165 0 .82.82 0 0 0 0-1.165L11.092 16l3.529-3.52a.82.82 0 0 0 0-1.165M20.779 11.32a.82.82 0 0 0-1.165 0l-4.103 4.102a.82.82 0 0 0 0 1.165l4.103 4.103a.82.82 0 0 0 1.345-.267.82.82 0 0 0-.18-.898l-3.528-3.52 3.528-3.52a.82.82 0 0 0 0-1.165"/></svg>