<svg width="53" height="52" viewBox="0 0 53 52" fill="none" xmlns="http://www.w3.org/2000/svg">
<path d="M26.0615 3.25C32.0952 3.25 37.8818 5.64687 42.1482 9.91332C46.4147 14.1798 48.8115 19.9663 48.8115 26C48.8115 32.0337 46.4147 37.8202 42.1482 42.0867C37.8818 46.3531 32.0952 48.75 26.0615 48.75C20.0278 48.75 14.2413 46.3531 9.97484 42.0867C5.70839 37.8202 3.31152 32.0337 3.31152 26C3.31152 19.9663 5.70839 14.1798 9.97484 9.91332C14.2413 5.64687 20.0278 3.25 26.0615 3.25ZM23.2275 30.4883L18.1738 25.4313C17.9926 25.2501 17.7775 25.1064 17.5408 25.0083C17.3041 24.9103 17.0504 24.8598 16.7941 24.8598C16.5379 24.8598 16.2842 24.9103 16.0475 25.0083C15.8108 25.1064 15.5957 25.2501 15.4145 25.4313C15.0486 25.7972 14.8431 26.2934 14.8431 26.8109C14.8431 27.3283 15.0486 27.8246 15.4145 28.1905L21.8495 34.6255C22.0302 34.8076 22.2451 34.9521 22.4819 35.0508C22.7187 35.1494 22.9726 35.2002 23.2291 35.2002C23.4857 35.2002 23.7396 35.1494 23.9764 35.0508C24.2132 34.9521 24.4281 34.8076 24.6088 34.6255L37.9338 21.2973C38.1174 21.1168 38.2634 20.9018 38.3635 20.6647C38.4636 20.4275 38.5158 20.1729 38.517 19.9155C38.5182 19.6581 38.4684 19.403 38.3705 19.1649C38.2726 18.9269 38.1286 18.7105 37.9467 18.5284C37.7647 18.3463 37.5486 18.202 37.3106 18.1038C37.0727 18.0056 36.8176 17.9556 36.5602 17.9564C36.3028 17.9573 36.0481 18.0092 35.8108 18.109C35.5736 18.2088 35.3584 18.3546 35.1778 18.538L23.2275 30.4883Z" fill="#28A746"/>
</svg>
