<svg width="37" height="33" viewBox="0 0 37 33" fill="none" xmlns="http://www.w3.org/2000/svg">
<g clip-path="url(#clip0_7395_37588)">
<path d="M29.5512 15.3176C29.5512 15.3176 30.0262 17.6426 30.1324 18.1301H28.0449C28.2512 17.5738 29.0449 15.4113 29.0449 15.4113C29.0324 15.4301 29.2512 14.8426 29.3762 14.4801L29.5512 15.3176ZM36.1699 5.86133V27.8613C36.1699 29.5176 34.8262 30.8613 33.1699 30.8613H3.16992C1.51367 30.8613 0.169922 29.5176 0.169922 27.8613V5.86133C0.169922 4.20508 1.51367 2.86133 3.16992 2.86133H33.1699C34.8262 2.86133 36.1699 4.20508 36.1699 5.86133ZM9.70117 21.5613L13.6512 11.8613H10.9949L8.53867 18.4863L8.26992 17.1426L7.39492 12.6801C7.25117 12.0613 6.80742 11.8863 6.25742 11.8613H2.21367L2.16992 12.0551C3.15742 12.3051 4.03867 12.6676 4.80742 13.1238L7.04492 21.5613H9.70117ZM15.6012 21.5738L17.1762 11.8613H14.6637L13.0949 21.5738H15.6012ZM24.3449 18.3988C24.3574 17.2926 23.6824 16.4488 22.2387 15.7551C21.3574 15.3113 20.8199 15.0113 20.8199 14.5551C20.8324 14.1426 21.2762 13.7176 22.2637 13.7176C23.0824 13.6988 23.6824 13.8926 24.1324 14.0863L24.3574 14.1926L24.7012 12.0926C24.2074 11.8988 23.4199 11.6801 22.4512 11.6801C19.9699 11.6801 18.2262 13.0051 18.2137 14.8926C18.1949 16.2863 19.4637 17.0613 20.4137 17.5301C21.3824 18.0051 21.7137 18.3176 21.7137 18.7363C21.7012 19.3863 20.9262 19.6863 20.2074 19.6863C19.2074 19.6863 18.6699 19.5301 17.8512 19.1676L17.5199 19.0113L17.1699 21.1926C17.7574 21.4613 18.8449 21.6988 19.9699 21.7113C22.6074 21.7176 24.3262 20.4113 24.3449 18.3988ZM33.1699 21.5738L31.1449 11.8613H29.2012C28.6012 11.8613 28.1449 12.0363 27.8887 12.6676L24.1574 21.5738H26.7949C26.7949 21.5738 27.2262 20.3738 27.3199 20.1176H30.5449C30.6199 20.4613 30.8449 21.5738 30.8449 21.5738H33.1699Z" fill="#292D32"/>
</g>
<defs>
<clipPath id="clip0_7395_37588">
<rect width="36" height="32" fill="white" transform="translate(0.169922 0.861328)"/>
</clipPath>
</defs>
</svg>
