<svg width="26" height="25" viewBox="0 0 26 25" fill="none" xmlns="http://www.w3.org/2000/svg">
<path d="M23.3125 11.5408V17.2952C23.3125 20.3374 20.8375 22.8124 17.7953 22.8124H8.20469C5.1625 22.8124 2.6875 20.3374 2.6875 17.2952V9.85986H23.0444C23.1991 10.3239 23.2816 10.7983 23.3022 11.3036C23.3125 11.3758 23.3125 11.4686 23.3125 11.5408Z" fill="#D99E20"/>
<path opacity="0.4" d="M23.0444 9.86H2.6875V6.74563C2.6875 4.22938 4.72938 2.1875 7.24563 2.1875H9.64844C11.3294 2.1875 11.8553 2.73406 12.5256 3.63125L13.9694 5.54938C14.2891 5.97219 14.3303 6.03406 14.9284 6.03406H17.8056C20.2497 6.02375 22.3328 7.6325 23.0444 9.86Z" fill="#D99E20"/>
</svg>
