<svg xmlns="http://www.w3.org/2000/svg" width="81" height="76" fill="none"><mask id="a" fill="#fff"><path d="M0 15.211C0 6.811 6.81 0 15.211 0H65.79C74.189 0 81 6.81 81 15.211v44.873c0 8.401-6.81 15.212-15.211 15.212H15.21C6.811 75.296 0 68.486 0 60.084z"/></mask><path fill="#fff" d="M0 15.211C0 6.811 6.81 0 15.211 0H65.79C74.189 0 81 6.81 81 15.211v44.873c0 8.401-6.81 15.212-15.211 15.212H15.21C6.811 75.296 0 68.486 0 60.084z"/><path fill="#2F32DE" d="M15.211.5H65.79v-1H15.21zM80.5 15.211v44.873h1V15.212zM65.789 74.796H15.21v1H65.79zM.5 60.084V15.212h-1v44.874zm14.711 14.712C7.086 74.796.5 68.209.5 60.084h-1c0 8.678 7.034 15.712 15.711 15.712zM80.5 60.084c0 8.125-6.587 14.712-14.711 14.712v1c8.677 0 15.711-7.034 15.711-15.712zM65.789.5C73.913.5 80.5 7.086 80.5 15.211h1C81.5 6.534 74.466-.5 65.789-.5zM15.21-.5C6.534-.5-.5 6.534-.5 15.211h1C.5 7.086 7.086.5 15.211.5z" mask="url(#a)"/><g filter="url(#b)"><path fill="url(#c)" d="M36.349 56.57c-7.182-5.46-6.162-13.592-6.114-14.067l13.118 5.639s4.452 2.493 6.232 3.858 3.8 4.274 3.8 4.274-9.854 5.758-17.036.297"/></g><path fill="url(#d)" d="M57.48 58.174c-.455 1.939-1.377 5.864-1.424 6.054 0 0-1.425-4.511-2.197-6.054-.771-1.544-2.315-3.859-5.46-6.411-3.147-2.552-12.763-6.589-12.763-6.589l-5.401-2.611 9.082.059s10.031 4.57 11.515 5.52 3.027 2.552 3.977 4.214 2.671 5.818 2.671 5.818"/><path fill="url(#e)" d="M56.886 45.946c.06-2.553-.356-4.512-.356-5.402s-.237-2.73-.237-2.73l1.068 1.899s2.018 3.62 2.434 5.58c.415 1.958.356 3.145 0 5.282-.357 2.137-1.484 5.105-1.484 5.105s-.475-1.662-1.128-2.908c-.653-1.247-1.543-2.375-1.543-2.375s1.187-1.9 1.246-4.451"/><path fill="url(#f)" d="M29.344 40.247c-1.325-.91-4.63-3.027-4.748-3.146s21.665-.119 21.665-.119.416.12 1.544.831a4.8 4.8 0 0 0 2.315.713v7.182s-.831-.594-1.425-.95-1.306-1.543-1.543-2.018c-.238-.475-.653-2.493-.653-2.493z"/><path fill="url(#g)" d="m51.129 10.331-8.667.238s2.671 1.424 4.155 3.323 2.315 3.621 2.315 3.621h4.808z"/><path fill="url(#h)" d="M34.686 14.19c-2.968-.416-5.105-.238-5.105-.238L27.92 17.81h12.406s-2.67-3.205-5.639-3.62"/><path fill="url(#i)" d="m25.367 23.509 1.443-3.324h15.712s-.475.593-.89 1.365c-.416.771-.713 1.959-.713 1.959z"/><path fill="url(#j)" d="m22.815 29.148 1.425-3.325.118-.356 16.086.178-.297 1.484.297 2.018z"/><path fill="url(#k)" d="m21.806 31.284-.89 2.137 1.72 1.425 20.717-.178s-.772-.535-1.069-1.247l-.89-2.137z"/><path fill="url(#l)" d="M33.084 10.747c-.356 0-1.247.415-1.247.415s3.918.178 7.776 3.027 4.155 5.224 4.155 5.224.713-.594 1.365-.95a64 64 0 0 0 1.366-.772s-1.9-2.73-2.968-3.798-4.155-3.146-4.155-3.146z"/><path fill="#DDB02B" d="M52.494 39.06h2.374v1.781h-2.374zM52.494 41.078h2.374v1.781h-2.374zM52.494 43.096h2.374v1.781h-2.374zM52.494 45.114h2.315v3.384s-.831-.535-1.484-.89c-.653-.357-.831-.179-.831-.179z"/><g filter="url(#m)"><path fill="url(#n)" d="M27.089 41.613 23.17 39s-3.087 13.415 7.776 21.725 22.14 1.84 22.14 1.84l-1.246-3.383s-8.132 5.775-17.808-2.019-6.944-15.551-6.944-15.551"/></g><path fill="url(#o)" d="m54.571 19.71 4.749 9.675s-2.434.534-2.85.653.357 1.543.238 2.018c-.118.475-1.721.475-1.721.475s-.06.593.593.83c.653.238.89.12.89.12v1.187c0 .237.594.95.535 1.246-.06.297-.737 1.247-2.432 1.083l-.036-.004-2.993-.307s-2.612-.475-3.502-1.069c-.89-.593-1.722-1.187-2.968-2.374-1.247-1.187-4.214-7.538-1.247-11.1s10.744-2.433 10.744-2.433"/><path fill="url(#p)" stroke="#fff" stroke-width=".237" d="M51.247 21.787c-.178.06-4.867 2.552-4.867 2.552s.356.297.95.416c.593.119 2.196-.06 2.79.119.593.178 1.78.89 2.255.83.475-.059 2.137-.296 2.137-.296V23.21s-.237-.771-1.069-1.187c-.83-.415-2.018-.296-2.196-.237Z"/><circle cx="51.96" cy="23.686" r=".95" stroke="#fff" stroke-width=".119"/><circle cx="51.96" cy="23.687" r=".594" fill="#fff" stroke="#fff" stroke-width=".119"/><defs><linearGradient id="c" x1="41.772" x2="41.772" y1="42.503" y2="58.923" gradientUnits="userSpaceOnUse"><stop stop-color="#DEC42F"/><stop offset="1" stop-color="#D97220"/></linearGradient><linearGradient id="d" x1="43.858" x2="43.858" y1="42.563" y2="64.228" gradientUnits="userSpaceOnUse"><stop stop-color="#DEC42F"/><stop offset="1" stop-color="#D97220"/></linearGradient><linearGradient id="e" x1="57.862" x2="68.081" y1="37.813" y2="38.635" gradientUnits="userSpaceOnUse"><stop stop-color="#2F32DE"/><stop offset="1" stop-color="#fff"/></linearGradient><linearGradient id="f" x1="-4.786" x2="53.015" y1="50.279" y2="56.533" gradientUnits="userSpaceOnUse"><stop stop-color="#fff"/><stop offset=".824" stop-color="#2F32DE"/></linearGradient><linearGradient id="g" x1="48.101" x2="48.101" y1="10.331" y2="17.513" gradientUnits="userSpaceOnUse"><stop stop-color="#DEC42F"/><stop offset="1" stop-color="#D97220"/></linearGradient><linearGradient id="h" x1="34.122" x2="48.072" y1="13.914" y2="28.261" gradientUnits="userSpaceOnUse"><stop stop-color="#2F32DE"/><stop offset="1" stop-color="#fff"/></linearGradient><linearGradient id="i" x1="33.944" x2="44.449" y1="20.185" y2="37.695" gradientUnits="userSpaceOnUse"><stop stop-color="#2F32DE"/><stop offset="1" stop-color="#fff"/></linearGradient><linearGradient id="j" x1="32.134" x2="64.64" y1="25.467" y2="50.587" gradientUnits="userSpaceOnUse"><stop stop-color="#2F32DE"/><stop offset="1" stop-color="#fff"/></linearGradient><linearGradient id="k" x1="32.134" x2="64.64" y1="25.467" y2="50.587" gradientUnits="userSpaceOnUse"><stop stop-color="#2F32DE"/><stop offset="1" stop-color="#fff"/></linearGradient><linearGradient id="l" x1="39.168" x2="39.168" y1="10.747" y2="19.413" gradientUnits="userSpaceOnUse"><stop stop-color="#DEC42F"/><stop offset="1" stop-color="#D97220"/></linearGradient><linearGradient id="n" x1="11.219" x2="56.472" y1="31.373" y2="66.169" gradientUnits="userSpaceOnUse"><stop offset=".043" stop-color="#fff"/><stop offset=".465" stop-color="#2F32DE"/></linearGradient><linearGradient id="o" x1="50.935" x2="86.337" y1="19.54" y2="30.513" gradientUnits="userSpaceOnUse"><stop stop-color="#2F32DE"/><stop offset="1" stop-color="#fff"/></linearGradient><linearGradient id="p" x1="50.446" x2="63.56" y1="21.725" y2="30.372" gradientUnits="userSpaceOnUse"><stop stop-color="#2F32DE"/><stop offset="1" stop-color="#fff"/></linearGradient><filter id="b" width="24.804" height="16.895" x="28.58" y="42.503" color-interpolation-filters="sRGB" filterUnits="userSpaceOnUse"><feFlood flood-opacity="0" result="BackgroundImageFix"/><feBlend in="SourceGraphic" in2="BackgroundImageFix" result="shape"/><feColorMatrix in="SourceAlpha" result="hardAlpha" values="0 0 0 0 0 0 0 0 0 0 0 0 0 0 0 0 0 0 127 0"/><feOffset dx="-1.899" dy=".475"/><feGaussianBlur stdDeviation=".789"/><feComposite in2="hardAlpha" k2="-1" k3="1" operator="arithmetic"/><feColorMatrix values="0 0 0 0 0.176649 0 0 0 0 0.183214 0 0 0 0 0.229167 0 0 0 0.17 0"/><feBlend in2="shape" result="effect1_innerShadow_3268_23628"/></filter><filter id="m" width="33.364" height="29.007" x="21.244" y="39.001" color-interpolation-filters="sRGB" filterUnits="userSpaceOnUse"><feFlood flood-opacity="0" result="BackgroundImageFix"/><feColorMatrix in="SourceAlpha" result="hardAlpha" values="0 0 0 0 0 0 0 0 0 0 0 0 0 0 0 0 0 0 127 0"/><feOffset dy="1.521"/><feGaussianBlur stdDeviation=".761"/><feComposite in2="hardAlpha" operator="out"/><feColorMatrix values="0 0 0 0 0 0 0 0 0 0 0 0 0 0 0 0 0 0 0.25 0"/><feBlend in2="BackgroundImageFix" result="effect1_dropShadow_3268_23628"/><feBlend in="SourceGraphic" in2="effect1_dropShadow_3268_23628" result="shape"/></filter></defs></svg>