<svg xmlns="http://www.w3.org/2000/svg" width="32" height="33" fill="none"><path fill="#D99E20" fill-opacity=".2" d="M0 8.648a8 8 0 0 1 8-8h16a8 8 0 0 1 8 8v16a8 8 0 0 1-8 8H8a8 8 0 0 1-8-8z"/><g clip-path="url(#a)"><path fill="#D99E20" fill-rule="evenodd" d="M15.997 7.707a8.941 8.941 0 1 1-3.727 17.067l-4.456.806a.643.643 0 0 1-.715-.86l1.278-3.401a8.94 8.94 0 0 1 7.62-13.612m-.487 5.656a1.28 1.28 0 1 1 .49 2.462.804.804 0 0 0-.804.804v1.388a.804.804 0 1 0 1.607 0v-.7a2.886 2.886 0 1 0-3.69-2.774.804.804 0 0 0 1.607 0 1.28 1.28 0 0 1 .79-1.181m.49 8.93a1.15 1.15 0 0 1 .002-2.302h.003a1.151 1.151 0 0 1-.003 2.301z" clip-rule="evenodd"/></g><defs><clipPath id="a"><path fill="#fff" d="M7 7.648h18v18H7z"/></clipPath></defs></svg>