<svg xmlns="http://www.w3.org/2000/svg" width="24" height="24" fill="none"><path fill="#D99E20" fill-opacity=".2" d="M24 12c0-6.627-5.373-12-12-12S0 5.373 0 12s5.373 12 12 12 12-5.373 12-12"/><path fill="#D99E20" d="M13.41 8.486a.615.615 0 0 1 .873 0l3.077 3.077a.617.617 0 0 1 0 .874l-3.077 3.076a.614.614 0 0 1-.874 0 .614.614 0 0 1 0-.873L16.055 12 13.41 9.36a.614.614 0 0 1 0-.874M8.791 8.49a.616.616 0 0 1 .874 0l3.077 3.077a.614.614 0 0 1 0 .873l-3.077 3.077a.614.614 0 0 1-.874 0 .615.615 0 0 1 0-.873l2.646-2.64-2.646-2.64a.615.615 0 0 1 0-.874"/></svg>