<svg xmlns="http://www.w3.org/2000/svg" width="24" height="24" fill="none"><path fill="#D99E20" fill-opacity=".2" d="M0 6a6 6 0 0 1 6-6h12a6 6 0 0 1 6 6v12a6 6 0 0 1-6 6H6a6 6 0 0 1-6-6z"/><path fill="#D99E20" d="M5.062 16.988a.567.567 0 0 1-.563-.563V12.15a7.46 7.46 0 0 1 2.13-5.392 7.41 7.41 0 0 1 5.333-2.22c4.155 0 7.537 3.382 7.537 7.537v4.275a.567.567 0 0 1-.562.563.567.567 0 0 1-.563-.563v-4.275a6.42 6.42 0 0 0-6.412-6.412c-1.733 0-3.338.667-4.53 1.882-1.2 1.223-1.838 2.85-1.808 4.59v4.283c0 .315-.247.57-.562.57"/><path fill="#D99E20" d="M7.455 12.337h-.098A2.86 2.86 0 0 0 4.5 15.195v1.41a2.86 2.86 0 0 0 2.858 2.857h.097a2.86 2.86 0 0 0 2.858-2.857v-1.41a2.86 2.86 0 0 0-2.858-2.858M16.643 12.337h-.098a2.86 2.86 0 0 0-2.858 2.858v1.41a2.86 2.86 0 0 0 2.858 2.857h.097a2.86 2.86 0 0 0 2.858-2.857v-1.41a2.86 2.86 0 0 0-2.858-2.858"/></svg>