<svg xmlns="http://www.w3.org/2000/svg" width="32" height="32" fill="none"><path fill="#B3B3B3" fill-opacity=".4" d="M0 8a8 8 0 0 1 8-8h16a8 8 0 0 1 8 8v16a8 8 0 0 1-8 8H8a8 8 0 0 1-8-8z"/><g clip-path="url(#a)"><path fill="#F4F6F9" fill-rule="evenodd" d="M15.996 4.079a11.921 11.921 0 1 1-4.97 22.755l-5.941 1.075a.857.857 0 0 1-.953-1.145l1.704-4.536a11.921 11.921 0 0 1 10.16-18.15m-.65 7.54a1.704 1.704 0 0 1 1.97 2.659 1.7 1.7 0 0 1-1.316.625 1.07 1.07 0 0 0-1.072 1.071v1.852a1.071 1.071 0 0 0 2.143 0v-.935a3.849 3.849 0 1 0-4.92-3.697 1.072 1.072 0 0 0 2.143 0 1.705 1.705 0 0 1 1.053-1.576zM16 23.527a1.535 1.535 0 0 1 .003-3.07h.004a1.534 1.534 0 0 1-.004 3.07z" clip-rule="evenodd"/></g><defs><clipPath id="a"><path fill="#fff" d="M4 4h24v24H4z"/></clipPath></defs></svg>