<svg xmlns="http://www.w3.org/2000/svg" width="24" height="24" fill="none"><path fill="#D99E20" fill-opacity=".2" d="M0 6a6 6 0 0 1 6-6h12a6 6 0 0 1 6 6v12a6 6 0 0 1-6 6H6a6 6 0 0 1-6-6z"/><path fill="#D99E20" d="M17.843 6.165c-2.22-2.212-5.82-2.212-8.026 0a5.66 5.66 0 0 0-1.417 5.7L4.875 15.39c-.248.255-.42.758-.368 1.118l.225 1.635c.083.54.585 1.05 1.125 1.125l1.635.225c.36.052.863-.113 1.118-.375l.615-.615a.37.37 0 0 0 0-.533L7.77 16.515a.566.566 0 0 1 0-.795.566.566 0 0 1 .795 0l1.463 1.463a.376.376 0 0 0 .524 0l1.59-1.583a5.68 5.68 0 0 0 5.7-1.402 5.69 5.69 0 0 0 0-8.033M13.875 12a1.876 1.876 0 1 1 .001-3.751A1.876 1.876 0 0 1 13.875 12"/></svg>