<svg width="26" height="25" viewBox="0 0 26 25" fill="none" xmlns="http://www.w3.org/2000/svg">
<path opacity="0.4" d="M21.8896 8.83906C20.8068 4.07469 16.6509 1.92969 13.0003 1.92969C13.0003 1.92969 13.0003 1.92969 12.9899 1.92969C9.34963 1.92969 5.18338 4.06437 4.10056 8.82875C2.894 14.15 6.15275 18.6566 9.10213 21.4925C10.1953 22.5444 11.5978 23.0703 13.0003 23.0703C14.4028 23.0703 15.8053 22.5444 16.8881 21.4925C19.8374 18.6566 23.0962 14.1603 21.8896 8.83906Z" fill="#D99E20"/>
<path d="M12.9994 14.0057C14.7935 14.0057 16.2479 12.5513 16.2479 10.7572C16.2479 8.96316 14.7935 7.50879 12.9994 7.50879C11.2054 7.50879 9.75098 8.96316 9.75098 10.7572C9.75098 12.5513 11.2054 14.0057 12.9994 14.0057Z" fill="#D99E20"/>
</svg>
