<svg width="42" height="33" viewBox="0 0 42 33" fill="none" xmlns="http://www.w3.org/2000/svg">
<g clip-path="url(#clip0_7395_37583)">
<path d="M7.48507 32.7027V30.5848C7.48507 29.7727 6.99076 29.2433 6.14348 29.2433C5.71992 29.2433 5.26099 29.3845 4.94324 29.8435C4.69625 29.4551 4.34328 29.2433 3.81375 29.2433C3.46063 29.2433 3.10782 29.3491 2.82529 29.7375V29.3139H2.08398V32.7027H2.82529V30.8318C2.82529 30.2318 3.14304 29.9493 3.63735 29.9493C4.13134 29.9493 4.37866 30.267 4.37866 30.8318V32.7027H5.11996V30.8318C5.11996 30.2318 5.47277 29.9493 5.9317 29.9493C6.42601 29.9493 6.67301 30.267 6.67301 30.8318V32.7027H7.48507ZM18.4633 29.3139H17.2632V28.2902H16.5219V29.3139H15.8512V29.9845H16.5218V31.5378C16.5218 32.3145 16.8395 32.7733 17.6868 32.7733C18.0045 32.7733 18.3574 32.6675 18.6047 32.5263L18.3927 31.8908C18.1809 32.032 17.934 32.0674 17.7574 32.0674C17.4044 32.0674 17.2632 31.8556 17.2632 31.5025V29.9845H18.4633V29.3139ZM24.7469 29.2432C24.3233 29.2432 24.041 29.4551 23.8644 29.7375V29.3139H23.1231V32.7027H23.8644V30.7965C23.8644 30.2318 24.1114 29.914 24.5703 29.914C24.7115 29.914 24.8881 29.9494 25.0293 29.9846L25.2411 29.2787C25.0999 29.2433 24.8881 29.2433 24.7469 29.2433M15.2511 29.5965C14.898 29.3493 14.4038 29.2435 13.8743 29.2435C13.0272 29.2435 12.4624 29.667 12.4624 30.3378C12.4624 30.9027 12.886 31.2203 13.6273 31.3262L13.9803 31.3616C14.3686 31.432 14.5804 31.538 14.5804 31.7146C14.5804 31.9616 14.298 32.1381 13.8037 32.1381C13.3094 32.1381 12.9212 31.9616 12.6741 31.7852L12.3211 32.3499C12.7094 32.6323 13.239 32.7735 13.7683 32.7735C14.7568 32.7735 15.3217 32.3147 15.3217 31.6792C15.3217 31.0791 14.8628 30.7613 14.1567 30.6555L13.8037 30.6201C13.486 30.5848 13.239 30.5143 13.239 30.3025C13.239 30.0554 13.486 29.9142 13.8743 29.9142C14.298 29.9142 14.7216 30.0906 14.9334 30.1966L15.2511 29.5965ZM34.9488 29.2435C34.5251 29.2435 34.2427 29.4553 34.0661 29.7376V29.3141H33.3248V32.7029H34.0661V30.7967C34.0661 30.232 34.3133 29.9142 34.7721 29.9142C34.9134 29.9142 35.09 29.9496 35.2312 29.9848L35.4429 29.2789C35.3018 29.2435 35.09 29.2435 34.9488 29.2435ZM25.4882 31.0085C25.4882 32.0322 26.1941 32.7735 27.2886 32.7735C27.7827 32.7735 28.1357 32.6677 28.4886 32.3853L28.1357 31.7852C27.8533 31.9969 27.5709 32.1027 27.2532 32.1027C26.6531 32.1027 26.2295 31.6792 26.2295 31.0085C26.2295 30.3731 26.6531 29.9494 27.2532 29.9142C27.5709 29.9142 27.8533 30.02 28.1357 30.232L28.4886 29.6318C28.1357 29.3493 27.7827 29.2435 27.2886 29.2435C26.1941 29.2435 25.4882 29.9848 25.4882 31.0085ZM32.3365 31.0085V29.3141H31.5952V29.7376C31.3481 29.4201 30.9951 29.2435 30.5362 29.2435C29.5831 29.2435 28.8418 29.9848 28.8418 31.0085C28.8418 32.0322 29.5831 32.7735 30.5362 32.7735C31.0303 32.7735 31.3834 32.5971 31.5952 32.2793V32.7029H32.3365V31.0085ZM29.6183 31.0085C29.6183 30.4084 30.0066 29.9142 30.642 29.9142C31.2421 29.9142 31.6658 30.3731 31.6658 31.0085C31.6658 31.6086 31.2421 32.1027 30.642 32.1027C30.0066 32.0674 29.6183 31.6086 29.6183 31.0085ZM20.758 29.2435C19.7695 29.2435 19.0634 29.9494 19.0634 31.0085C19.0634 32.0675 19.7694 32.7735 20.7932 32.7735C21.2874 32.7735 21.7817 32.6323 22.17 32.3147L21.8169 31.7852C21.5345 31.9969 21.1816 32.1381 20.8286 32.1381C20.3697 32.1381 19.9107 31.9263 19.8047 31.3261H22.3112V31.0439C22.3466 29.9494 21.7112 29.2435 20.758 29.2435ZM20.7578 29.8788C21.2166 29.8788 21.5345 30.1614 21.6049 30.6909H19.84C19.9106 30.232 20.2283 29.8788 20.7578 29.8788ZM39.1493 31.0085V27.9727H38.408V29.7376C38.1608 29.4201 37.8079 29.2435 37.3489 29.2435C36.3959 29.2435 35.6546 29.9848 35.6546 31.0085C35.6546 32.0322 36.3959 32.7735 37.3489 32.7735C37.8433 32.7735 38.1962 32.5971 38.408 32.2793V32.7029H39.1493V31.0085ZM36.4312 31.0085C36.4312 30.4084 36.8194 29.9142 37.4549 29.9142C38.055 29.9142 38.4786 30.3731 38.4786 31.0085C38.4786 31.6086 38.055 32.1027 37.4549 32.1027C36.8194 32.0674 36.4312 31.6086 36.4312 31.0085ZM11.6502 31.0085V29.3141H10.9089V29.7376C10.6618 29.4201 10.3088 29.2435 9.84985 29.2435C8.89677 29.2435 8.15546 29.9848 8.15546 31.0085C8.15546 32.0322 8.89677 32.7735 9.84985 32.7735C10.3442 32.7735 10.6971 32.5971 10.9089 32.2793V32.7029H11.6502V31.0085ZM8.89677 31.0085C8.89677 30.4084 9.28511 29.9142 9.92045 29.9142C10.5206 29.9142 10.9443 30.3731 10.9443 31.0085C10.9443 31.6086 10.5206 32.1027 9.92045 32.1027C9.28511 32.0674 8.89677 31.6086 8.89677 31.0085Z" fill="black"/>
<path d="M15.0039 3.58008H26.1235V23.5601H15.0039V3.58008Z" fill="#FF5F00"/>
<path d="M15.7107 13.5695C15.7107 9.51001 17.6169 5.90929 20.5468 3.5794C18.3936 1.88501 15.6755 0.861328 12.7103 0.861328C5.68525 0.861328 0.00195312 6.54462 0.00195312 13.5695C0.00195312 20.5944 5.68525 26.2777 12.7101 26.2777C15.6754 26.2777 18.3934 25.254 20.5468 23.5595C17.6169 21.2649 15.7107 17.629 15.7107 13.5695Z" fill="#EB001B"/>
<path d="M41.1268 13.5695C41.1268 20.5942 35.4435 26.2777 28.4187 26.2777C25.4534 26.2777 22.7354 25.254 20.582 23.5595C23.5473 21.2297 25.4182 17.629 25.4182 13.5695C25.4182 9.51001 23.5119 5.90929 20.582 3.5794C22.7352 1.88501 25.4534 0.861328 28.4187 0.861328C35.4435 0.861328 41.1268 6.58 41.1268 13.5695Z" fill="#F79E1B"/>
</g>
<defs>
<clipPath id="clip0_7395_37583">
<rect width="41.17" height="32" fill="white" transform="translate(0 0.861328)"/>
</clipPath>
</defs>
</svg>
