<svg width="28" height="33" viewBox="0 0 28 33" fill="none" xmlns="http://www.w3.org/2000/svg">
<g clip-path="url(#clip0_7395_37590)">
<path d="M23.1833 3.35161C21.7068 1.66875 19.0379 0.947266 15.6235 0.947266H5.71412C5.37628 0.947214 5.04952 1.06771 4.79259 1.28709C4.53567 1.50646 4.36546 1.81031 4.31258 2.14398L0.186489 28.3127C0.104475 28.8287 0.504051 29.296 1.02707 29.296H7.14479L8.68122 19.5507L8.63354 19.8559C8.74299 19.167 9.33213 18.6589 10.0298 18.6589H12.9369C18.6479 18.6589 23.1198 16.3393 24.4261 9.62891C24.4648 9.43044 24.4984 9.23728 24.5275 9.04856C24.3626 8.96125 24.3626 8.96125 24.5275 9.04856C24.9165 6.56835 24.5248 4.88009 23.1833 3.35161Z" fill="#27346A"/>
<path d="M11.0221 8.15511C11.1893 8.07534 11.3723 8.03407 11.5575 8.03431H19.3263C20.2463 8.03431 21.1043 8.09418 21.8884 8.22038C22.1078 8.25539 22.3261 8.29716 22.5429 8.34562C22.8503 8.41345 23.154 8.49645 23.4531 8.59431C23.8386 8.72305 24.1976 8.87299 24.5276 9.04856C24.9164 6.5674 24.5248 4.88009 23.1833 3.35161C21.706 1.66875 19.0379 0.947266 15.6235 0.947266H5.71327C5.01552 0.947266 4.42193 1.45524 4.31258 2.14398L0.186489 28.3117C0.104476 28.8286 0.504052 29.2952 1.02622 29.2952H7.14479L10.3324 9.0812C10.3638 8.88252 10.4429 8.69444 10.5631 8.53312C10.6832 8.3718 10.8407 8.24208 11.0221 8.15511Z" fill="#27346A"/>
<path d="M24.426 9.62917C23.1197 16.3386 18.648 18.6592 12.9369 18.6592H10.0289C9.33124 18.6592 8.742 19.1673 8.6336 19.8561L6.72219 31.9732C6.65077 32.4248 7.00001 32.834 7.45691 32.834H12.614C12.9094 32.834 13.1951 32.7285 13.4197 32.5366C13.6443 32.3447 13.7931 32.0789 13.8392 31.7872L13.8894 31.5244L14.8614 25.3643L14.924 25.0238C14.9702 24.7321 15.1189 24.4663 15.3435 24.2744C15.5681 24.0825 15.8538 23.977 16.1492 23.9769H16.921C21.9167 23.9769 25.8284 21.9474 26.9715 16.0776C27.4486 13.6246 27.2018 11.5766 25.9396 10.1381C25.5567 9.70239 25.0813 9.34255 24.5274 9.04883C24.4974 9.2385 24.4649 9.43071 24.426 9.62917Z" fill="#2790C3"/>
<path d="M23.1608 8.50446C22.9571 8.44499 22.7515 8.39233 22.5443 8.34658C22.3273 8.29888 22.1091 8.2574 21.8898 8.22218C21.1048 8.09513 20.2474 8.03516 19.3266 8.03516H11.5587C11.3734 8.03485 11.1903 8.07647 11.0233 8.15691C10.8417 8.24357 10.684 8.3732 10.5638 8.53457C10.4436 8.69594 10.3646 8.88419 10.3335 9.083L8.68245 19.5517L8.63477 19.8568C8.74337 19.168 9.33251 18.6599 10.0303 18.6599H12.9382C18.6493 18.6599 23.121 16.3402 24.4273 9.62986C24.4662 9.4314 24.4988 9.23908 24.5288 9.04952C24.1981 8.87503 23.8399 8.7239 23.4544 8.59611C23.3571 8.56385 23.2592 8.5333 23.1609 8.50446" fill="#1F264F"/>
</g>
<defs>
<clipPath id="clip0_7395_37590">
<rect width="27.13" height="32" fill="white" transform="translate(0.169922 0.861328)"/>
</clipPath>
</defs>
</svg>
