<svg width="13" height="13" viewBox="0 0 13 13" fill="none" xmlns="http://www.w3.org/2000/svg">
<path d="M9.375 5.30859V3.80859C9.375 3.54338 9.26964 3.28902 9.08211 3.10149C8.89457 2.91395 8.64022 2.80859 8.375 2.80859H4.375C4.10978 2.80859 3.85543 2.91395 3.66789 3.10149C3.48036 3.28902 3.375 3.54338 3.375 3.80859V5.30859C3.10978 5.30859 2.85543 5.41395 2.66789 5.60149C2.48036 5.78902 2.375 6.04338 2.375 6.30859V8.8086H3.04L3.375 9.8086H3.875L4.21 8.8086H8.54L8.875 9.8086H9.375L9.71 8.8086H10.375V6.30859C10.375 6.04338 10.2696 5.78902 10.0821 5.60149C9.89457 5.41395 9.64022 5.30859 9.375 5.30859ZM5.875 5.30859H4.375V3.80859H5.875M8.375 5.30859H6.875V3.80859H8.375V5.30859Z" fill="#1A1A1A"/>
</svg>
