<svg xmlns="http://www.w3.org/2000/svg" width="167" height="152" fill="none"><path fill="#2F32DE" fill-opacity=".2" stroke="#2F32DE" stroke-dasharray="2 2" d="M.674 150.222a4 4 0 0 1-.598-1.441l.49-.097A3.5 3.5 0 0 1 .5 148v-.985H0v-1.971h.5v-1.97H0v-1.971h.5v-1.971H0v-1.97h.5v-1.971H0v-1.97h.5v-1.971H0v-1.971h.5v-1.97H0v-1.971h.5v-1.97H0v-1.971h.5v-1.971H0v-1.97h.5v-1.971H0v-1.97h.5v-1.971H0v-1.97h.5v-1.971H0v-1.971h.5v-1.97H0v-1.971h.5v-1.97H0V97.75h.5v-1.97H0v-1.971h.5v-1.97H0v-1.971h.5v-1.97H0v-1.971h.5v-1.971H0v-1.97h.5v-1.971H0v-1.97h.5v-1.972H0v-1.97h.5v-1.97H0v-1.971h.5v-1.97H0V66.22h.5V64.25H0v-1.97h.5v-1.971H0v-1.97h.5v-1.971H0v-1.97h.5v-1.972H0v-1.97h.5v-1.97H0v-1.971h.5v-1.97H0v-1.971h.5v-1.971H0v-1.97h.5v-1.971H0v-1.97h.5V32.72H0V30.75h.5v-1.97H0v-1.971h.5v-1.97H0v-1.971h.5v-1.97H0v-1.971h.5v-1.971H0v-1.97h.5V14q0-.352.067-.684l-.49-.097c.103-.524.31-1.012.597-1.441l.415.278c.256-.382.585-.711.967-.967l-.278-.415a4 4 0 0 1 1.441-.598l.097.49q.332-.065.684-.066h1.005V10h2.009v.5h1.004q.451-.001.878-.086l-.097-.49a4 4 0 0 0 1.442-.598l.278.416c.49-.329.913-.75 1.241-1.241l-.415-.279c.287-.429.493-.917.597-1.441l.49.097q.086-.428.086-.878v-.5h-.5v-1h.5V4q0-.352.067-.684l-.49-.097a4 4 0 0 1 .597-1.441l.415.278c.256-.382.585-.711.967-.967l-.278-.415c.429-.288.917-.494 1.442-.598l.097.49q.331-.065.683-.066h.973V0h1.944v.5h1.945V0h1.945v.5h1.944V0h1.945v.5h1.945V0h1.945v.5h1.944V0h1.945v.5h1.945V0h1.944v.5h1.945V0h1.945v.5h1.945V0h1.944v.5h1.945V0h1.945v.5h1.944V0h1.945v.5h1.945V0h1.944v.5h1.945V0h1.945v.5h1.944V0h1.945v.5h1.945V0h1.945v.5h1.944V0h1.945v.5h.972q.353 0 .684.067l.097-.49c.525.103 1.013.31 1.442.597l-.278.415c.382.256.71.585.966.967l.416-.278c.287.429.493.917.597 1.441l-.49.097q.065.332.066.684v.5h.5v1h-.5V6q.001.45.086.878l.49-.097c.104.524.31 1.012.598 1.441l-.415.279c.328.49.75.912 1.24 1.24l.279-.415c.429.288.917.494 1.442.598l-.097.49q.427.086.877.086h1V10h2v.5h1.999V10h1.999v.5h2V10h1.999v.5h2V10h1.998v.5h2V10h1.999v.5h1.999V10h2v.5h1.999V10h2v.5h1.999V10h1.999v.5h2V10h1.999v.5h1.999V10h2v.5h1.999V10h1.999v.5h2V10h1.999v.5h1.999V10h2v.5h1.999V10h1.999v.5h2V10h1.999v.5h2V10h1.999v.5h1.999V10h2v.5h1.999V10h1.999v.5h2V10h1.999v.5h1.999V10h2v.5h.999q.353 0 .684.067l.097-.49c.525.103 1.013.31 1.442.597l-.278.415c.382.256.71.585.966.967l.416-.278c.287.429.493.917.597 1.441l-.49.097q.065.332.066.684v.985h.5v1.97h-.5v1.972h.5v1.97h-.5v1.97h.5v1.971h-.5v1.97h.5v1.971h-.5v1.971h.5v1.97h-.5v1.971h.5v1.97h-.5v1.971h.5v1.97h-.5v1.972h.5v1.97h-.5v1.97h.5v1.971h-.5v1.97h.5v1.971h-.5v1.971h.5v1.97h-.5v1.971h.5v1.97h-.5v1.971h.5v1.971h-.5v1.97h.5v1.971h-.5v1.97h.5v1.971h-.5v1.97h.5v1.971h-.5v1.971h.5v1.97h-.5v1.971h.5v1.97h-.5v1.972h.5v1.97h-.5v1.97h.5v1.971h-.5v1.97h.5v1.971h-.5v1.971h.5v1.97h-.5v1.971h.5v1.971h-.5v1.97h.5v1.971h-.5v1.971h.5v1.97h-.5v1.971h.5v1.97h-.5v1.971h.5v1.97h-.5v1.971h.5v1.971h-.5v1.97h.5v1.971h-.5v1.97h.5v1.971h-.5v1.971h.5v1.97h-.5v1.971h.5v1.97h-.5v1.971h.5v1.971h-.5v1.97h.5v1.971h-.5V148q0 .352-.066.684l.49.097a4 4 0 0 1-.597 1.441l-.416-.278a3.5 3.5 0 0 1-.966.967l.278.415a4 4 0 0 1-1.442.598l-.097-.491a3.5 3.5 0 0 1-.684.067h-.989v.5h-1.979v-.5h-1.98v.5h-1.979v-.5h-1.979v.5h-1.979v-.5h-1.979v.5h-1.979v-.5h-1.98v.5h-1.979v-.5h-1.979v.5h-1.979v-.5h-1.979v.5h-1.979v-.5h-1.98v.5h-1.979v-.5h-1.979v.5h-1.979v-.5h-1.979v.5h-1.979v-.5h-1.98v.5h-1.979v-.5h-1.979v.5h-1.979v-.5h-1.979v.5h-1.979v-.5h-1.98v.5h-1.979v-.5h-1.979v.5h-1.979v-.5h-1.979v.5h-1.98v-.5H98.01v.5h-1.979v-.5h-1.979v.5h-1.98v-.5h-1.978v.5h-1.98v-.5h-1.979v.5h-1.979v-.5h-1.979v.5h-1.98v-.5H78.22v.5h-1.98v-.5H74.26v.5h-1.979v-.5h-1.979v.5h-1.98v-.5h-1.978v.5h-1.98v-.5h-1.979v.5h-1.979v-.5h-1.979v.5h-1.98v-.5H54.47v.5h-1.98v-.5H50.51v.5h-1.979v-.5h-1.979v.5h-1.98v-.5h-1.978v.5h-1.98v-.5h-1.979v.5h-1.979v-.5h-1.979v.5h-1.98v-.5H30.72v.5h-1.98v-.5H26.76v.5h-1.979v-.5h-1.979v.5h-1.98v-.5h-1.978v.5h-1.98v-.5h-1.979v.5h-1.979v-.5h-1.979v.5h-1.98v-.5H6.97v.5h-1.98v-.5H4q-.352 0-.684-.067l-.097.491a4 4 0 0 1-1.441-.598l.278-.415a3.5 3.5 0 0 1-.967-.967z"/></svg>