<svg width="48" height="46" viewBox="0 0 48 46" fill="none" xmlns="http://www.w3.org/2000/svg">
<path d="M23.1286 1.26564C23.4851 0.543399 24.5149 0.543398 24.8714 1.26564L31.4151 14.5247C31.5567 14.8115 31.8303 15.0103 32.1468 15.0562L46.779 17.1824C47.576 17.2982 47.8943 18.2777 47.3175 18.8399L36.7296 29.1606C36.5005 29.3839 36.396 29.7055 36.4501 30.0207L38.9496 44.5938C39.0857 45.3876 38.2525 45.993 37.5396 45.6182L24.4522 38.7377C24.1691 38.5889 23.8309 38.5889 23.5478 38.7377L10.4604 45.6182C9.74748 45.993 8.91428 45.3876 9.05043 44.5938L11.5499 30.0207C11.604 29.7055 11.4995 29.3839 11.2704 29.1606L0.682481 18.8399C0.105736 18.2777 0.42399 17.2982 1.22103 17.1824L15.8532 15.0562C16.1697 15.0103 16.4433 14.8115 16.5849 14.5247L23.1286 1.26564Z" fill="url(#paint0_linear_7390_36739)"/>
<defs>
<linearGradient id="paint0_linear_7390_36739" x1="24" y1="-0.5" x2="24" y2="51.5" gradientUnits="userSpaceOnUse">
<stop stop-color="#DEC42F"/>
<stop offset="0.615" stop-color="#D97220"/>
</linearGradient>
</defs>
</svg>
